<?xml version="1.0" encoding="utf-8"?>
<!-- Generator: Adobe Illustrator 28.0.0, SVG Export Plug-In . SVG Version: 6.00 Build 0)  -->
<svg version="1.1" id="Layer_1" xmlns="http://www.w3.org/2000/svg" xmlns:xlink="http://www.w3.org/1999/xlink" x="0px" y="0px"
	 viewBox="0 0 612 792" style="enable-background:new 0 0 612 792;" xml:space="preserve">
<style type="text/css">
	.st0{fill:none;stroke:#212830;stroke-width:0.5;stroke-linecap:square;stroke-miterlimit:10;}
	.st1{fill:none;stroke:#212830;stroke-width:0;stroke-linecap:square;stroke-miterlimit:10;}
	.st2{fill:none;stroke:#39B54A;stroke-width:0.25;stroke-miterlimit:10;}
	.st3{fill:none;stroke:#70C169;stroke-width:0;stroke-linecap:square;stroke-miterlimit:10;}
	.st4{fill-rule:evenodd;clip-rule:evenodd;fill:#70C169;}
	.st5{fill-rule:evenodd;clip-rule:evenodd;fill:#70C169;stroke:#39B54A;stroke-width:0.25;stroke-miterlimit:10;}
</style>
<polyline class="st0" points="406.79,569.55 407.21,569.45 407.64,569.3 407.99,569.13 408.34,568.85 408.66,568.56 408.94,568.21 
	409.15,567.79 409.37,567.36 409.51,566.87 409.61,566.34 409.68,565.77 409.72,565.21 "/>
<polyline class="st0" points="408.91,569.55 409.3,569.3 409.61,569.02 409.9,568.67 410.18,568.32 410.39,567.86 410.57,567.4 
	410.71,566.9 410.81,566.37 410.88,565.77 410.92,565.17 "/>
<polyline class="st0" points="409.75,559.45 409.93,559.52 410.14,559.6 410.35,559.6 410.57,559.6 410.78,559.52 410.95,559.45 "/>
<line class="st0" x1="409.75" y1="559.45" x2="409.75" y2="565.21"/>
<line class="st0" x1="410.95" y1="565.21" x2="410.95" y2="559.45"/>
<polyline class="st0" points="407.78,550.98 407.64,551.09 407.46,551.19 407.28,551.33 407.11,551.47 406.97,551.62 406.86,551.72 
	"/>
<polyline class="st0" points="409.75,559.49 409.72,558.85 409.65,558.22 409.54,557.58 409.4,556.91 409.19,556.24 408.98,555.57 
	408.7,554.9 408.38,554.23 408.06,553.59 407.67,552.96 407.28,552.36 406.86,551.76 "/>
<polyline class="st0" points="410.95,559.45 410.92,558.78 410.85,558.11 410.74,557.37 410.57,556.66 410.35,555.92 410.11,555.18 
	409.79,554.44 409.47,553.73 409.08,552.99 408.7,552.32 408.24,551.65 407.78,550.98 "/>
<polyline class="st0" points="403.83,543.5 403.97,543.46 404.11,543.35 404.25,543.25 404.36,543.11 "/>
<polyline class="st0" points="403.61,545.44 403.68,544.52 403.83,543.53 "/>
<polyline class="st0" points="403.61,545.44 403.9,546.25 404.18,547.06 404.53,547.87 404.92,548.69 405.34,549.5 405.84,550.24 
	406.33,551.02 406.86,551.72 "/>
<polyline class="st0" points="404.36,543.11 404.5,543.92 404.67,544.7 404.88,545.51 405.17,546.32 405.52,547.13 405.87,547.94 
	406.3,548.72 406.75,549.5 407.25,550.24 407.78,550.95 "/>
<polyline class="st0" points="403.54,543.81 403.68,543.67 403.83,543.53 "/>
<line class="st0" x1="404.43" y1="543" x2="404.36" y2="543.11"/>
<line class="st0" x1="404.43" y1="543" x2="404.32" y2="542.93"/>
<line class="st0" x1="402.56" y1="544.45" x2="402.63" y2="544.48"/>
<polyline class="st0" points="402.63,544.48 403.08,544.17 403.54,543.81 "/>
<line class="st0" x1="412.15" y1="538.55" x2="404.43" y2="543"/>
<polyline class="st0" points="403.93,542.93 403.9,542.93 403.9,542.93 "/>
<line class="st0" x1="407.78" y1="550.98" x2="415.58" y2="546.5"/>
<line class="st0" x1="410.95" y1="559.45" x2="418.75" y2="554.97"/>
<line class="st0" x1="410.95" y1="565.21" x2="418.75" y2="560.72"/>
<polyline class="st0" points="421.79,530.22 422.07,530.12 422.35,529.9 422.64,529.69 422.92,529.41 423.16,529.06 423.41,528.74 
	423.59,528.35 423.73,527.96 423.84,527.61 423.91,527.22 423.94,526.87 423.91,526.55 "/>
<polyline class="st1" points="422.04,528.6 422.21,528.39 422.35,528.14 422.49,527.93 422.6,527.64 "/>
<polyline class="st0" points="421.79,530.33 422.11,530.19 422.39,529.97 422.67,529.73 422.95,529.44 423.24,529.13 423.45,528.74 
	423.66,528.39 423.8,528 423.91,527.61 423.98,527.22 424.01,526.87 423.98,526.55 "/>
<line class="st0" x1="408.1" y1="562.81" x2="403.68" y2="565.35"/>
<line class="st0" x1="408.1" y1="562.7" x2="403.58" y2="565.28"/>
<line class="st0" x1="403.68" y1="565.35" x2="403.58" y2="565.28"/>
<line class="st0" x1="403.72" y1="552.32" x2="404.57" y2="551.83"/>
<line class="st0" x1="403.72" y1="552.32" x2="403.61" y2="552.25"/>
<line class="st0" x1="412.37" y1="538.31" x2="404.32" y2="542.93"/>
<line class="st0" x1="404.43" y1="543" x2="404.32" y2="542.93"/>
<line class="st0" x1="403.61" y1="545.44" x2="403.61" y2="552.25"/>
<line class="st0" x1="403.47" y1="582.51" x2="403.54" y2="543.81"/>
<line class="st0" x1="412.61" y1="577.25" x2="403.47" y2="582.51"/>
<line class="st0" x1="412.65" y1="567.89" x2="412.61" y2="577.25"/>
<polyline class="st0" points="420.91,538.66 420.13,540.07 419.35,541.52 418.65,542.97 417.98,544.45 417.31,545.93 416.67,547.41 
	"/>
<line class="st0" x1="425.81" y1="530.15" x2="420.87" y2="538.62"/>
<polyline class="st0" points="425.74,530.12 426.02,529.62 426.23,529.13 426.41,528.6 426.55,528.1 426.62,527.61 426.66,527.11 
	426.62,526.69 426.55,526.27 426.45,525.91 426.27,525.6 426.06,525.35 425.78,525.14 425.49,525.03 425.14,524.96 424.79,524.96 
	424.44,525.03 424.05,525.17 423.62,525.35 "/>
<line class="st0" x1="413.64" y1="531.1" x2="423.66" y2="525.31"/>
<polyline class="st0" points="413.64,531.1 413.35,531.28 413.07,531.49 412.79,531.74 412.51,532.02 412.22,532.34 411.98,532.66 
	"/>
<line class="st1" x1="404.32" y1="542.93" x2="411.98" y2="532.62"/>
<line class="st0" x1="403.58" y1="565.28" x2="403.58" y2="572.13"/>
<polygon class="st0" points="424.93,526.58 424.68,526.48 424.44,526.48 424.12,526.51 423.8,526.62 423.48,526.83 423.13,527.08 
	422.85,527.4 422.56,527.75 422.32,528.14 422.11,528.53 421.93,528.95 421.82,529.37 421.75,529.76 421.75,530.15 421.82,530.5 
	421.93,530.79 422.11,531 422.32,531.17 422.56,531.28 422.81,531.28 423.13,531.24 423.45,531.14 423.76,530.93 424.12,530.68 
	424.4,530.36 424.68,530.01 424.93,529.62 425.14,529.23 425.32,528.81 425.42,528.39 425.49,528 425.49,527.61 425.42,527.26 
	425.32,526.97 425.14,526.76 424.93,526.58 "/>
<polyline class="st0" points="405.84,552.71 405.59,552.46 405.34,552.22 405.1,552.04 404.85,551.93 404.6,551.86 404.36,551.83 
	404.14,551.86 403.97,551.97 403.83,552.11 403.72,552.32 "/>
<polyline class="st0" points="408.1,558.54 408.06,557.97 407.99,557.37 407.88,556.77 407.71,556.17 407.5,555.57 407.25,554.97 
	406.97,554.37 406.61,553.81 406.26,553.24 405.87,552.71 "/>
<line class="st0" x1="408.1" y1="564.26" x2="408.1" y2="558.5"/>
<polyline class="st0" points="405.8,567.43 406.23,567.36 406.58,567.26 406.9,567.04 407.21,566.8 407.46,566.48 407.67,566.13 
	407.85,565.7 407.95,565.28 408.03,564.79 408.06,564.26 "/>
<polyline class="st0" points="403.72,565.35 403.83,565.67 404,566.02 404.18,566.3 404.39,566.62 404.64,566.87 404.85,567.08 
	405.13,567.26 405.38,567.36 405.63,567.43 405.84,567.47 "/>
<line class="st0" x1="405.84" y1="567.47" x2="407.5" y2="566.52"/>
<polyline class="st0" points="371.15,543.92 372.14,544.45 373.16,544.94 374.22,545.4 375.31,545.83 376.48,546.21 377.68,546.57 
	378.91,546.85 380.15,547.13 381.42,547.34 382.72,547.52 384.03,547.66 385.37,547.77 386.71,547.8 388.05,547.8 389.36,547.77 
	390.7,547.66 392,547.52 393.31,547.34 394.58,547.13 395.82,546.89 397.05,546.57 398.25,546.21 399.41,545.86 400.51,545.44 
	401.57,544.98 402.59,544.48 "/>
<polyline class="st0" points="296.97,495.52 297,496.26 297.11,497 297.29,497.74 297.53,498.45 297.85,499.19 298.24,499.89 
	298.7,500.6 299.23,501.27 299.83,501.94 300.46,502.58 301.17,503.18 301.94,503.78 302.79,504.34 303.67,504.91 "/>
<polyline class="st0" points="371.08,582.44 371.11,583.5 371.18,584.49 371.29,585.47 371.47,586.39 371.71,587.27 371.96,588.12 
	372.31,588.93 372.67,589.68 373.09,590.38 373.55,591.02 374.08,591.62 374.61,592.11 375.21,592.61 375.84,592.99 "/>
<polyline class="st0" points="303.57,543.43 303.6,544.48 303.67,545.47 303.78,546.46 303.96,547.38 304.2,548.26 304.45,549.11 
	304.8,549.92 305.16,550.66 305.58,551.37 306.04,552 306.57,552.6 307.1,553.1 307.7,553.59 308.3,553.98 "/>
<polyline class="st0" points="416.81,547.7 417.17,546.57 417.48,545.4 "/>
<line class="st0" x1="413.6" y1="531.07" x2="413.64" y2="531.1"/>
<line class="st0" x1="420.66" y1="523.58" x2="423.66" y2="525.31"/>
<line class="st0" x1="419.11" y1="524.47" x2="420.66" y2="523.58"/>
<polyline class="st0" points="422.78,523.41 422.56,523.3 422.32,523.27 422.07,523.23 421.79,523.23 421.51,523.27 421.22,523.37 
	420.94,523.48 420.62,523.62 "/>
<polyline class="st0" points="412.61,577.25 413.5,576.72 414.31,576.15 415.08,575.55 415.79,574.95 416.46,574.32 417.06,573.65 
	417.55,572.98 418.01,572.31 418.4,571.6 418.75,570.89 419,570.15 419.18,569.41 419.28,568.67 419.32,567.93 "/>
<polyline class="st0" points="296.86,534.1 296.9,534.85 297,535.55 297.18,536.29 297.43,537.03 297.74,537.74 298.13,538.45 
	298.59,539.15 299.12,539.82 299.72,540.49 300.36,541.13 301.1,541.77 301.87,542.33 302.69,542.9 303.57,543.46 "/>
<polyline class="st0" points="407.81,587.77 408.45,587.35 409.05,586.89 409.58,586.36 410.11,585.79 410.57,585.16 410.99,584.45 
	411.38,583.71 411.7,582.9 411.98,582.08 412.19,581.17 412.37,580.25 412.51,579.3 412.58,578.27 412.61,577.25 "/>
<polyline class="st0" points="398.67,593.03 399.31,592.61 399.91,592.15 400.44,591.62 400.97,591.05 401.43,590.42 401.85,589.71 
	402.24,588.97 402.56,588.16 402.84,587.35 403.05,586.43 403.23,585.51 403.37,584.56 403.44,583.53 403.47,582.51 "/>
<polyline class="st0" points="371.08,582.47 372.1,583 373.16,583.53 374.25,583.99 375.42,584.45 376.62,584.84 377.89,585.19 
	379.16,585.47 380.46,585.76 381.81,585.97 383.15,586.15 384.52,586.25 385.9,586.32 387.27,586.36 388.65,586.32 390.03,586.25 
	391.4,586.15 392.74,585.97 394.09,585.76 395.39,585.51 396.66,585.19 397.93,584.87 399.13,584.49 400.3,584.03 401.39,583.57 
	402.45,583.07 403.47,582.51 "/>
<polyline class="st0" points="357.6,539.01 357.77,538.84 357.91,538.55 358.06,538.09 358.09,537.56 "/>
<line class="st0" x1="358.09" y1="537.56" x2="358.09" y2="536.29"/>
<polyline class="st0" points="412.93,567.33 412.75,567.75 412.58,568.14 412.47,568.56 412.37,569.02 "/>
<polyline class="st0" points="416.74,565.1 417.27,564.75 417.73,564.29 418.12,563.76 418.44,563.2 418.68,562.53 418.86,561.85 
	418.97,561.11 419,560.37 "/>
<line class="st1" x1="419" y1="560.37" x2="419" y2="554.65"/>
<polyline class="st0" points="419,554.65 418.97,553.63 418.79,552.57 418.54,551.51 418.19,550.42 417.73,549.36 417.2,548.33 
	416.6,547.31 415.93,546.39 "/>
<polyline class="st0" points="412.51,538.91 412.75,539.89 413.04,540.88 413.39,541.87 413.78,542.83 414.24,543.78 414.77,544.66 
	415.33,545.54 415.93,546.36 "/>
<polyline class="st0" points="407.53,570.12 407.25,570.15 406.97,570.26 406.68,570.36 406.4,570.5 "/>
<polyline class="st0" points="407.53,570.05 407.88,569.98 408.24,569.87 408.59,569.73 408.91,569.59 "/>
<line class="st0" x1="416.74" y1="565.1" x2="408.94" y2="569.59"/>
<line class="st0" x1="375.81" y1="593.03" x2="308.33" y2="554.02"/>
<line class="st0" x1="425.81" y1="525.14" x2="422.81" y2="523.37"/>
<line class="st0" x1="419.32" y1="567.96" x2="419.39" y2="541.41"/>
<polyline class="st0" points="296.86,534.1 296.9,535.41 297,536.75 297.22,538.06 297.46,539.4 297.82,540.67 298.24,541.94 
	298.73,543.18 299.3,544.41 299.93,545.58 300.6,546.71 301.38,547.8 302.23,548.86 303.11,549.85 304.03,550.8 305.05,551.69 
	306.07,552.5 307.17,553.28 308.3,553.98 "/>
<line class="st0" x1="407.81" y1="587.8" x2="398.67" y2="593.06"/>
<polyline class="st0" points="407.81,587.77 408.94,587.06 410.04,586.29 411.1,585.47 412.08,584.59 413.04,583.64 413.92,582.65 
	414.77,581.63 415.51,580.53 416.21,579.4 416.85,578.24 417.41,577 417.91,575.77 418.33,574.53 418.68,573.22 418.97,571.92 
	419.14,570.61 419.28,569.27 419.32,567.93 "/>
<polyline class="st0" points="375.81,592.99 377.01,593.63 378.21,594.19 379.44,594.69 380.71,595.11 381.98,595.43 383.29,595.71 
	384.59,595.92 385.93,596.03 387.24,596.07 388.58,596.03 389.89,595.92 391.23,595.71 392.53,595.47 393.8,595.11 395.07,594.69 
	396.31,594.19 397.51,593.67 398.67,593.03 "/>
<line class="st0" x1="296.86" y1="534.1" x2="296.97" y2="495.52"/>
<line class="st2" x1="296.86" y1="547.38" x2="296.86" y2="568.63"/>
<line class="st2" x1="387.27" y1="599.63" x2="387.27" y2="620.89"/>
<line class="st2" x1="387.27" y1="599.63" x2="405.63" y2="610.26"/>
<line class="st2" x1="419.28" y1="581.2" x2="437.6" y2="591.76"/>
<line class="st2" x1="419.28" y1="581.2" x2="437.67" y2="570.58"/>
<line class="st3" x1="297.04" y1="568.35" x2="297.14" y2="568.17"/>
<line class="st2" x1="387.45" y1="620.6" x2="387.52" y2="620.43"/>
<line class="st2" x1="298.03" y1="569.3" x2="336.32" y2="591.44"/>
<line class="st2" x1="386.11" y1="620.21" x2="347.82" y2="598.08"/>
<polygon class="st4" points="298.13,569.09 297.89,569.48 296.86,568.63 "/>
<polygon class="st2" points="298.13,569.09 297.89,569.48 296.86,568.63 298.13,569.09 "/>
<polygon class="st5" points="386.22,620.04 386,620.43 387.27,620.89 "/>
<polygon class="st2" points="386.22,620.04 386,620.43 387.27,620.89 386.22,620.04 "/>
<line class="st3" x1="296.86" y1="568.63" x2="296.86" y2="568.63"/>
<line class="st2" x1="387.27" y1="620.89" x2="387.27" y2="620.89"/>
<polyline class="st2" points="338.36,591.09 336.39,591.97 338.01,592.92 "/>
<line class="st2" x1="338.36" y1="591.09" x2="337.02" y2="593.38"/>
<polyline class="st2" points="340.45,593.31 340.13,593.56 339.77,593.67 339.39,593.56 339.28,593.52 339.03,593.21 338.93,592.85 
	339,592.46 339.07,592.36 339.39,592.11 339.7,592.01 340.09,592.08 340.23,592.15 340.48,592.46 340.59,592.78 340.45,593.31 
	340.13,593.84 339.7,594.34 339.28,594.55 338.89,594.44 338.68,594.34 338.4,594.02 338.43,593.74 "/>
<polyline class="st2" points="340.55,595.11 340.37,595.15 340.41,595.32 340.59,595.29 "/>
<polyline class="st2" points="342.53,594.23 342.6,594.09 342.81,593.95 342.99,593.91 343.27,593.91 343.73,594.16 343.87,594.41 
	343.9,594.58 343.9,594.87 343.76,595.08 343.55,595.25 343.13,595.43 341.4,595.89 342.95,596.77 "/>
<polyline class="st2" points="344.68,595.32 344.96,595.32 345.46,595.18 344.15,597.48 "/>
<polyline class="st2" points="346.9,596 348.1,596.7 346.94,597.2 347.26,597.37 347.4,597.62 347.47,597.8 347.36,598.18 
	347.26,598.4 346.94,598.68 346.62,598.75 346.23,598.68 345.88,598.5 345.63,598.18 345.56,598.01 345.6,597.73 "/>
<line class="st2" x1="405.48" y1="609.98" x2="405.38" y2="609.8"/>
<line class="st3" x1="437.42" y1="591.48" x2="437.35" y2="591.3"/>
<line class="st2" x1="406.79" y1="609.59" x2="415.47" y2="604.57"/>
<line class="st2" x1="436.47" y1="592.43" x2="427.75" y2="597.48"/>
<polygon class="st5" points="406.68,609.41 406.9,609.8 405.63,610.26 "/>
<polygon class="st2" points="406.68,609.41 406.9,609.8 405.63,610.26 406.68,609.41 "/>
<polygon class="st4" points="436.33,592.25 436.57,592.64 437.6,591.76 "/>
<polygon class="st2" points="436.33,592.25 436.57,592.64 437.6,591.76 436.33,592.25 "/>
<polyline class="st2" points="415.37,603.69 415.51,603.44 415.65,602.95 416.99,605.25 "/>
<polyline class="st2" points="416.85,602.24 418.4,601.36 418.61,604.29 "/>
<polyline class="st2" points="420.34,602.99 420.31,603.16 420.48,603.2 420.52,603.06 "/>
<polyline class="st2" points="421.22,599.7 421.01,601.89 422.67,600.94 "/>
<line class="st2" x1="421.22" y1="599.7" x2="422.56" y2="602"/>
<polygon class="st2" points="422.99,598.71 422.71,599 422.67,599.46 422.88,600.06 423.09,600.41 423.52,600.87 423.91,601.08 
	424.29,601.01 424.54,600.87 424.79,600.58 424.82,600.13 424.61,599.49 424.44,599.17 424.01,598.68 423.59,598.5 423.2,598.57 
	422.99,598.71 "/>
<line class="st2" x1="405.63" y1="610.26" x2="405.63" y2="610.26"/>
<line class="st3" x1="437.6" y1="591.76" x2="437.6" y2="591.76"/>
<polyline class="st2" points="424.75,598.25 424.93,598.01 425.07,597.51 426.38,599.81 "/>
<polyline class="st2" points="426.52,597.23 426.66,597.02 426.8,596.49 428.14,598.78 "/>
<line class="st3" x1="437.99" y1="570.58" x2="438.2" y2="570.58"/>
<line class="st2" x1="437.99" y1="473.98" x2="438.2" y2="473.98"/>
<line class="st2" x1="437.67" y1="569.23" x2="437.67" y2="530.43"/>
<line class="st2" x1="437.67" y1="475.29" x2="437.67" y2="514.09"/>
<polygon class="st4" points="437.46,569.23 437.88,569.23 437.67,570.58 "/>
<polygon class="st2" points="437.46,569.23 437.88,569.23 437.67,570.58 437.46,569.23 "/>
<polygon class="st5" points="437.46,475.29 437.88,475.29 437.67,473.98 "/>
<polygon class="st2" points="437.46,475.29 437.88,475.29 437.67,473.98 437.46,475.29 "/>
<polyline class="st2" points="436.33,528.84 438.13,530.12 438.13,528.21 "/>
<line class="st2" x1="436.33" y1="528.84" x2="439.01" y2="528.84"/>
<polyline class="st2" points="436.33,526.05 436.33,527.33 437.49,527.47 437.35,527.33 437.25,526.94 437.25,526.58 437.35,526.2 
	437.6,525.95 437.99,525.81 438.23,525.81 438.62,525.95 438.87,526.2 439.01,526.58 439.01,526.94 438.87,527.33 438.73,527.47 
	438.48,527.57 "/>
<polyline class="st3" points="438.73,524.93 438.87,525.07 439.01,524.93 438.87,524.82 "/>
<polyline class="st2" points="436.33,522.52 438.13,523.8 438.13,521.89 "/>
<line class="st2" x1="436.33" y1="522.52" x2="439.01" y2="522.52"/>
<polygon class="st2" points="436.33,520.62 436.47,521.01 436.72,521.15 436.96,521.15 437.25,521.01 437.35,520.76 437.49,520.26 
	437.6,519.88 437.85,519.63 438.13,519.49 438.48,519.49 438.73,519.63 438.87,519.74 439.01,520.12 439.01,520.62 438.87,521.01 
	438.73,521.15 438.48,521.25 438.13,521.25 437.85,521.15 437.6,520.9 437.49,520.51 437.35,519.98 437.25,519.74 436.96,519.63 
	436.72,519.63 436.47,519.74 436.33,520.12 436.33,520.62 "/>
<line class="st3" x1="437.67" y1="570.58" x2="437.67" y2="570.58"/>
<line class="st2" x1="437.67" y1="473.98" x2="437.67" y2="473.98"/>
<polyline class="st2" points="436.72,517.23 436.47,517.33 436.33,517.72 436.33,517.97 436.47,518.36 436.86,518.61 437.49,518.75 
	438.13,518.75 438.62,518.61 438.87,518.36 439.01,517.97 439.01,517.86 438.87,517.48 438.62,517.23 438.23,517.09 438.13,517.09 
	437.74,517.23 437.49,517.48 437.35,517.86 437.35,517.97 437.49,518.36 437.74,518.61 438.13,518.75 "/>
<polyline class="st2" points="436.33,516.2 436.33,514.44 439.01,515.71 "/>
<line class="st2" x1="419.46" y1="484.5" x2="437.67" y2="473.98"/>
<polyline class="st0" points="422.71,523.37 422.49,523.23 422.25,523.16 421.96,523.12 421.72,523.12 421.4,523.16 421.12,523.23 
	420.8,523.37 420.48,523.51 "/>
<line class="st0" x1="419.18" y1="524.25" x2="420.48" y2="523.51"/>
<polyline class="st0" points="371.15,543.85 372.14,544.38 373.16,544.87 374.22,545.33 375.31,545.76 376.48,546.14 377.68,546.5 
	378.91,546.78 380.15,547.06 381.42,547.27 382.72,547.45 384.03,547.59 385.37,547.7 386.71,547.73 388.05,547.73 389.36,547.7 
	390.7,547.59 392,547.45 393.31,547.27 394.58,547.06 395.82,546.81 397.05,546.5 398.25,546.14 399.41,545.79 400.51,545.37 
	401.57,544.91 402.59,544.41 "/>
<line class="st0" x1="303.67" y1="504.84" x2="371.15" y2="543.85"/>
<polyline class="st0" points="296.97,495.48 297,496.22 297.11,496.93 297.29,497.67 297.53,498.41 297.85,499.12 298.24,499.82 
	298.7,500.53 299.23,501.2 299.83,501.87 300.46,502.51 301.2,503.14 301.98,503.71 302.79,504.27 303.67,504.84 "/>
<line class="st0" x1="420.48" y1="523.51" x2="419.42" y2="522.88"/>
<polyline class="st0" points="419.18,524.25 419.25,523.94 419.32,523.58 419.35,523.23 419.39,522.88 "/>
<line class="st0" x1="419.42" y1="522.88" x2="419.42" y2="522.35"/>
<line class="st0" x1="402.63" y1="544.48" x2="402.56" y2="544.45"/>
<line class="st0" x1="402.63" y1="544.41" x2="402.63" y2="544.48"/>
<polyline class="st0" points="412.72,525.84 413.6,525.31 414.41,524.75 415.19,524.15 415.89,523.55 416.57,522.91 417.17,522.24 
	417.66,521.57 418.12,520.9 418.51,520.19 418.86,519.49 419.11,518.75 419.28,518.01 419.39,517.26 419.42,516.52 "/>
<line class="st0" x1="412.75" y1="525.88" x2="412.72" y2="531.77"/>
<polyline class="st0" points="413.6,531.07 413.18,531.39 412.72,531.77 "/>
<polyline class="st0" points="413.6,531.07 414.45,530.47 415.26,529.87 415.97,529.23 416.64,528.56 417.24,527.89 417.77,527.18 
	418.22,526.48 418.61,525.77 418.93,525.03 419.18,524.25 "/>
<polyline class="st0" points="403.54,543.81 403.08,544.17 402.63,544.48 "/>
<polyline class="st0" points="403.54,543.81 403.76,543.6 403.93,543.39 404.14,543.18 404.32,542.93 "/>
<line class="st0" x1="404.32" y1="542.93" x2="411.98" y2="532.62"/>
<polyline class="st0" points="412.75,531.77 412.54,531.99 412.37,532.2 412.15,532.41 411.98,532.66 "/>
<line class="st0" x1="403.58" y1="531.14" x2="412.75" y2="525.88"/>
<line class="st1" x1="403.54" y1="543.81" x2="403.58" y2="531.14"/>
<polyline class="st0" points="387.42,503 386.43,503.6 385.48,504.27 384.49,504.98 383.53,505.79 382.58,506.64 381.66,507.52 
	380.78,508.47 379.9,509.5 379.02,510.52 378.21,511.61 377.43,512.74 376.65,513.87 375.95,515.07 375.28,516.28 374.64,517.51 
	374.08,518.75 373.55,520.02 373.05,521.29 372.63,522.52 372.24,523.8 371.92,525.07 371.64,526.3 371.47,527.5 371.29,528.74 
	371.22,529.9 371.18,531.03 "/>
<polyline class="st0" points="371.18,531.07 372.21,531.6 373.26,532.13 374.36,532.59 375.52,533.05 376.72,533.43 377.99,533.79 
	379.26,534.07 380.57,534.35 381.91,534.56 383.25,534.74 384.63,534.85 386,534.92 387.38,534.95 388.76,534.92 390.13,534.85 
	391.51,534.74 392.85,534.56 394.19,534.35 395.5,534.1 396.77,533.79 398.04,533.47 399.24,533.08 400.4,532.62 401.5,532.16 
	402.56,531.67 403.58,531.1 "/>
<polyline class="st0" points="403.58,531.1 403.54,529.94 403.47,528.77 403.33,527.57 403.12,526.34 402.87,525.1 402.56,523.83 
	402.17,522.59 401.74,521.32 401.29,520.05 400.76,518.78 400.16,517.55 399.56,516.31 398.89,515.11 398.14,513.91 397.4,512.78 
	396.63,511.65 395.82,510.56 394.97,509.5 394.09,508.51 393.17,507.55 392.25,506.64 391.3,505.79 390.35,505.01 389.39,504.27 
	388.4,503.6 387.42,503 "/>
<line class="st0" x1="371.18" y1="531.07" x2="371.15" y2="543.85"/>
<polyline class="st0" points="412.72,525.84 412.68,524.68 412.61,523.51 412.47,522.31 412.26,521.08 412.01,519.84 411.7,518.57 
	411.31,517.33 410.88,516.06 410.43,514.79 409.9,513.52 409.3,512.29 408.7,511.05 408.03,509.85 407.28,508.65 406.54,507.52 
	405.77,506.39 404.96,505.3 404.11,504.24 403.23,503.25 402.31,502.29 401.39,501.38 400.44,500.53 399.49,499.75 398.53,499.01 
	397.54,498.34 396.56,497.74 "/>
<polyline class="st0" points="407.99,496.65 407.32,496.29 406.61,496.05 405.91,495.83 405.13,495.66 404.36,495.59 403.54,495.59 
	402.73,495.62 401.88,495.73 401.04,495.9 400.16,496.15 399.27,496.47 398.36,496.82 397.47,497.25 396.56,497.74 "/>
<polyline class="st0" points="319.94,463.99 318.95,464.59 318,465.26 317.01,465.96 316.06,466.78 315.11,467.62 314.19,468.51 
	313.31,469.46 312.43,470.48 311.54,471.51 310.73,472.6 309.96,473.73 309.18,474.86 308.47,476.06 307.8,477.26 307.17,478.5 
	306.6,479.73 306.07,481.01 305.58,482.28 305.16,483.51 304.77,484.78 304.45,486.05 304.17,487.29 303.99,488.49 303.81,489.73 
	303.74,490.89 303.71,492.02 "/>
<polyline class="st0" points="319.94,463.99 319.06,463.49 318.14,463.07 317.26,462.68 316.34,462.4 315.46,462.15 314.61,461.98 
	313.77,461.83 312.92,461.8 312.11,461.8 311.33,461.9 310.59,462.05 309.85,462.26 309.18,462.54 308.51,462.86 "/>
<polyline class="st0" points="297,482.7 297.04,483.44 297.14,484.15 297.32,484.89 297.57,485.63 297.89,486.34 298.27,487.04 
	298.73,487.75 299.26,488.42 299.86,489.09 300.5,489.73 301.24,490.36 302.01,490.93 302.83,491.49 303.71,492.06 "/>
<polyline class="st0" points="340.48,457.63 339.85,457.28 339.14,457.03 338.43,456.82 337.66,456.64 336.88,456.57 336.07,456.57 
	335.26,456.61 334.41,456.71 333.56,456.89 332.68,457.14 331.8,457.46 330.88,457.81 330,458.23 329.08,458.73 "/>
<polyline class="st0" points="329.08,458.73 328.2,458.23 327.28,457.81 326.4,457.42 325.48,457.14 324.6,456.89 323.75,456.71 
	322.91,456.57 322.06,456.54 321.25,456.54 320.47,456.64 319.73,456.79 318.99,457 318.32,457.28 317.65,457.6 "/>
<line class="st0" x1="319.94" y1="463.99" x2="329.08" y2="458.73"/>
<line class="st0" x1="329.08" y1="458.73" x2="396.59" y2="497.74"/>
<line class="st0" x1="303.67" y1="504.84" x2="303.71" y2="492.06"/>
<line class="st0" x1="387.42" y1="503" x2="319.94" y2="463.99"/>
<line class="st0" x1="303.71" y1="492.06" x2="371.18" y2="531.07"/>
<line class="st0" x1="396.59" y1="497.74" x2="387.42" y2="503"/>
<line class="st0" x1="422.67" y1="523.3" x2="419.42" y2="521.43"/>
<line class="st0" x1="419.46" y1="516.56" x2="419.42" y2="522.35"/>
<polyline class="st0" points="419.42,516.52 419.39,515.22 419.28,513.87 419.07,512.57 418.82,511.23 418.47,509.96 418.05,508.68 
	417.55,507.45 416.99,506.21 416.35,505.05 415.68,503.92 414.91,502.82 414.06,501.76 413.18,500.78 412.26,499.82 411.24,498.94 
	410.21,498.13 409.12,497.35 407.99,496.65 "/>
<polyline class="st0" points="308.51,462.86 307.38,463.56 306.28,464.34 305.23,465.15 304.24,466.04 303.29,466.99 302.4,467.98 
	301.56,469 300.82,470.1 300.11,471.23 299.47,472.39 298.91,473.63 298.42,474.86 297.99,476.1 297.64,477.4 297.36,478.71 
	297.18,480.02 297.04,481.36 297,482.7 "/>
<polyline class="st0" points="340.52,457.63 339.32,457 338.12,456.43 336.88,455.94 335.61,455.51 334.34,455.2 333.03,454.91 
	331.73,454.7 330.39,454.6 329.08,454.56 327.74,454.6 326.44,454.7 325.09,454.91 323.79,455.16 322.52,455.51 321.25,455.94 
	320.01,456.43 318.81,456.96 317.65,457.6 "/>
<line class="st0" x1="317.65" y1="457.6" x2="308.47" y2="462.86"/>
<line class="st0" x1="340.48" y1="457.63" x2="407.99" y2="496.65"/>
<line class="st0" x1="296.97" y1="482.7" x2="296.97" y2="495.48"/>
<polyline class="st0" points="316.41,512.25 316.55,512.32 316.73,512.39 "/>
<line class="st0" x1="316.41" y1="512.29" x2="316.41" y2="513.7"/>
<polyline class="st0" points="316.41,513.7 316.62,513.8 316.84,513.84 317.08,513.87 317.37,513.87 317.61,513.8 317.82,513.73 "/>
<line class="st0" x1="317.82" y1="513.77" x2="317.82" y2="513.03"/>
<polyline class="st0" points="320.82,518.96 320.65,519.1 320.51,519.31 320.37,519.52 320.26,519.74 320.19,519.98 320.15,520.19 
	"/>
<polyline class="st0" points="317.82,513.77 317.86,514.23 317.93,514.72 318.07,515.22 318.25,515.71 318.46,516.24 318.71,516.73 
	319.02,517.19 319.34,517.62 319.7,518.04 320.05,518.39 320.44,518.71 320.82,518.96 "/>
<polyline class="st0" points="316.41,513.7 316.45,514.23 316.52,514.72 316.62,515.25 316.8,515.82 317.01,516.35 317.26,516.88 
	317.54,517.41 317.82,517.9 318.18,518.39 318.53,518.85 318.92,519.24 319.34,519.63 319.73,519.95 320.15,520.19 "/>
<polyline class="st0" points="355.34,538.91 355.16,539.05 355.02,539.26 354.88,539.47 354.77,539.68 354.7,539.93 354.67,540.14 
	"/>
<line class="st0" x1="355.34" y1="538.91" x2="320.82" y2="518.96"/>
<line class="st0" x1="320.15" y1="520.23" x2="354.63" y2="540.14"/>
<polyline class="st0" points="358.09,537.56 358.13,537.67 358.16,537.78 358.27,537.88 358.41,537.99 "/>
<polyline class="st0" points="355.34,538.91 355.66,539.08 355.97,539.19 356.29,539.26 356.57,539.33 356.86,539.29 357.14,539.26 
	357.38,539.15 357.6,539.01 "/>
<polyline class="st0" points="354.67,540.14 355.09,540.35 355.51,540.53 355.9,540.64 356.29,540.67 356.64,540.64 357,540.57 
	357.31,540.42 357.6,540.21 357.81,539.97 358.02,539.68 358.2,539.29 358.3,538.91 358.37,538.48 358.41,538.02 "/>
<polyline class="st0" points="358.16,536.36 358.27,536.47 358.41,536.54 "/>
<line class="st0" x1="358.41" y1="537.99" x2="358.41" y2="536.54"/>
<polygon class="st0" points="337.9,540.07 338.01,539.97 338.08,539.79 338.12,539.58 338.08,539.37 338.01,539.12 337.9,538.87 
	337.73,538.62 337.55,538.45 337.38,538.31 337.16,538.2 336.99,538.2 336.85,538.24 336.74,538.34 336.67,538.52 336.63,538.73 
	336.67,538.94 336.74,539.19 336.85,539.44 337.02,539.68 337.2,539.86 337.38,540 337.59,540.11 337.76,540.11 337.9,540.07 "/>
<line class="st0" x1="316.41" y1="512.29" x2="303.67" y2="504.91"/>
<line class="st0" x1="303.57" y1="543.46" x2="303.67" y2="504.91"/>
<line class="st0" x1="371.08" y1="582.47" x2="303.57" y2="543.46"/>
<line class="st0" x1="371.15" y1="543.92" x2="371.08" y2="582.47"/>
<line class="st0" x1="371.15" y1="543.92" x2="358.41" y2="536.54"/>
<polyline class="st0" points="412.08,569.45 412.22,569.34 412.3,569.2 "/>
<line class="st0" x1="412.33" y1="568.99" x2="412.3" y2="569.2"/>
<polyline class="st0" points="412.79,567.4 412.54,567.86 412.37,568.35 412.19,568.88 412.08,569.45 "/>
<polyline class="st0" points="418.75,560.69 418.86,560.62 418.93,560.55 419,560.48 419,560.37 "/>
<polyline class="st0" points="416.71,565.07 417.09,564.82 417.41,564.54 417.69,564.18 417.98,563.83 418.19,563.37 418.37,562.91 
	418.51,562.42 418.61,561.89 418.68,561.29 418.72,560.69 "/>
<polyline class="st0" points="418.75,554.97 418.86,554.9 418.93,554.83 419,554.76 419,554.65 "/>
<line class="st1" x1="418.75" y1="554.97" x2="418.75" y2="560.72"/>
<polyline class="st0" points="415.93,546.36 415.89,546.36 415.82,546.36 415.72,546.43 415.58,546.5 "/>
<polyline class="st0" points="418.75,554.97 418.72,554.3 418.65,553.63 418.54,552.89 418.37,552.18 418.15,551.44 417.91,550.7 
	417.59,549.96 417.27,549.25 416.88,548.51 416.49,547.84 416.04,547.17 415.58,546.5 "/>
<polyline class="st1" points="412.37,538.31 412.3,538.45 412.15,538.55 "/>
<polyline class="st0" points="412.15,538.55 412.26,539.37 412.44,540.18 412.68,540.99 412.97,541.8 413.28,542.61 413.67,543.43 
	414.1,544.24 414.55,545.01 415.05,545.76 415.58,546.46 "/>
<line class="st1" x1="412.37" y1="538.31" x2="412.51" y2="538.91"/>
<line class="st0" x1="404.28" y1="573.93" x2="412.08" y2="569.45"/>
<polyline class="st0" points="403.83,574.07 404.07,574.04 404.28,573.93 "/>
<polyline class="st0" points="406.4,570.47 405.98,570.72 405.63,571.03 405.31,571.42 405.03,571.85 404.78,572.31 404.57,572.8 
	404.39,573.36 404.28,573.93 "/>
<polyline class="st0" points="406.83,569.59 406.9,569.73 407,569.87 407.14,569.98 407.25,570.05 407.39,570.08 407.53,570.08 "/>
<polyline class="st0" points="406.83,569.59 406.3,569.69 405.8,569.87 405.34,570.12 404.88,570.4 404.5,570.75 404.14,571.18 
	403.83,571.63 403.58,572.16 "/>
<polyline class="st0" points="403.83,574.07 403.65,573.12 403.58,572.13 "/>
<polyline class="st0" points="409.75,565.17 409.93,565.24 410.14,565.31 410.35,565.31 410.57,565.31 410.78,565.24 410.95,565.17 
	"/>
</svg>
