<?xml version="1.0" encoding="UTF-8"?>
<svg id="Layer_1" data-name="Layer 1" xmlns="http://www.w3.org/2000/svg" viewBox="0 0 279.3 189.98">
  <defs>
    <style>
      .cls-1 {
        fill: none;
        stroke: #212830;
        stroke-linecap: square;
        stroke-miterlimit: 10;
      }
    </style>
  </defs>
  <line class="cls-1" x1="52.41" y1="15.36" x2="205.04" y2="15.43"/>
  <line class="cls-1" x1="205.04" y1="15.43" x2="219.69" y2=".71"/>
  <line class="cls-1" x1="219.69" y1=".71" x2="67.06" y2=".71"/>
  <line class="cls-1" x1="26.51" y1="77.99" x2="179.17" y2="77.99"/>
  <line class="cls-1" x1="241.71" y1="52.04" x2="256.35" y2="37.39"/>
  <polyline class="cls-1" points="179.1 78.03 181.78 77.99 184.43 77.85 187.11 77.67 189.76 77.39 192.41 77 195.05 76.58 197.67 76.05 200.28 75.45 202.85 74.78 205.43 74 207.93 73.19 210.48 72.27 212.95 71.28 215.38 70.22 217.82 69.09 220.22 67.89 222.54 66.62 224.84 65.25 227.13 63.83 229.36 62.35 231.51 60.8 233.63 59.17 235.71 57.51 237.75 55.75 239.73 53.95 241.64 52.08"/>
  <line class="cls-1" x1="26.51" y1="77.99" x2="52.41" y2="52.04"/>
  <line class="cls-1" x1="52.41" y1="52.04" x2="15.78" y2="52.04"/>
  <line class="cls-1" x1="52.41" y1="15.36" x2="52.41" y2="52.04"/>
  <line class="cls-1" x1="52.41" y1="15.36" x2="67.06" y2=".71"/>
  <line class="cls-1" x1="179.17" y1="77.99" x2="205.08" y2="52.04"/>
  <line class="cls-1" x1="205.08" y1="52.04" x2="241.71" y2="52.04"/>
  <line class="cls-1" x1="205.08" y1="52.04" x2="205.04" y2="15.43"/>
  <line class="cls-1" x1="219.69" y1=".71" x2="219.69" y2="37.39"/>
  <line class="cls-1" x1="219.69" y1="37.39" x2="256.35" y2="37.39"/>
  <line class="cls-1" x1="219.69" y1="37.39" x2="245.62" y2="11.48"/>
  <line class="cls-1" x1="245.62" y1="11.48" x2="219.69" y2="11.48"/>
  <line class="cls-1" x1="30.39" y1="37.39" x2="52.41" y2="37.39"/>
  <line class="cls-1" x1="15.78" y1="52.04" x2="30.39" y2="37.39"/>
  <line class="cls-1" x1="215.8" y1="41.31" x2="219.69" y2="37.39"/>
  <line class="cls-1" x1="52.41" y1="52.04" x2="205.08" y2="52.04"/>
  <line class="cls-1" x1="205.08" y1="52.04" x2="215.8" y2="41.31"/>
  <line class="cls-1" x1="15.78" y1="52.04" x2="15.78" y2="152.59"/>
  <line class="cls-1" x1="26.51" y1="77.99" x2="26.51" y2="178.54"/>
  <line class="cls-1" x1="15.78" y1="152.59" x2="26.51" y2="152.59"/>
  <line class="cls-1" x1="26.51" y1="178.54" x2="179.17" y2="178.54"/>
  <line class="cls-1" x1="179.17" y1="178.54" x2="179.17" y2="77.99"/>
  <line class="cls-1" x1="241.71" y1="152.59" x2="241.71" y2="52.04"/>
  <line class="cls-1" x1="52.41" y1="178.54" x2="52.41" y2="189.27"/>
  <line class="cls-1" x1="52.41" y1="189.27" x2="205.08" y2="189.27"/>
  <line class="cls-1" x1="205.08" y1="189.27" x2="205.08" y2="174.66"/>
  <line class="cls-1" x1="205.08" y1="189.27" x2="219.69" y2="174.62"/>
  <line class="cls-1" x1="219.69" y1="174.62" x2="219.69" y2="168.69"/>
  <line class="cls-1" x1="256.35" y1="104.65" x2="256.35" y2="137.94"/>
  <line class="cls-1" x1="256.35" y1="137.94" x2="241.71" y2="152.59"/>
  <line class="cls-1" x1="245.62" y1="11.48" x2="245.62" y2="34.78"/>
  <polyline class="cls-1" points="249.75 105.81 248.87 106.41 247.99 107.08 247.18 107.79 246.4 108.53 245.69 109.34 245.02 110.19 244.39 111.07 243.86 111.99 243.37 112.94 242.94 113.93 242.55 114.96 242.27 116.02 242.02 117.04 241.85 118.13 241.78 119.19 241.74 120.29"/>
  <polyline class="cls-1" points="249.05 104.68 248.09 105.32 247.18 105.99 246.29 106.73 245.45 107.54 244.71 108.39 243.97 109.31 243.33 110.22 242.73 111.21 242.2 112.24 241.71 113.3"/>
  <polyline class="cls-1" points="249.72 105.81 250.64 105.21 251.52 104.54 252.33 103.8 253.11 103.02 253.81 102.18 254.45 101.26 255.01 100.34 255.51 99.35 255.96 98.33 256.32 97.3 256.6 96.24 256.78 95.15 256.92 94.06 256.95 92.96"/>
  <polyline class="cls-1" points="249.05 104.65 249.86 104.08 250.67 103.48 251.41 102.81 252.12 102.1 252.75 101.33 253.32 100.52 253.85 99.67 254.31 98.75 254.69 97.83 255.01 96.91 255.29 95.93 255.47 94.94 255.58 93.95 255.61 92.96"/>
  <line class="cls-1" x1="256.99" y1="92.93" x2="256.99" y2="79.37"/>
  <line class="cls-1" x1="255.61" y1="92.93" x2="255.65" y2="79.37"/>
  <polyline class="cls-1" points="256.99 79.37 256.95 78.27 256.88 77.21 256.71 76.12 256.46 75.1 256.18 74.04 255.79 73.01 255.36 72.02 254.87 71.07 254.34 70.15 253.71 69.27 253.03 68.42 252.33 67.61 251.55 66.87 250.74 66.16 249.86 65.49 248.98 64.89"/>
  <polyline class="cls-1" points="255.65 79.33 255.61 78.34 255.54 77.36 255.4 76.4 255.15 75.41 254.91 74.46 254.55 73.54 254.16 72.62 253.71 71.74 253.21 70.89 252.65 70.08 252.01 69.31 251.34 68.56 250.64 67.86 249.89 67.22 249.08 66.62 248.27 66.09"/>
  <polyline class="cls-1" points="241.78 52.04 241.81 53.14 241.95 54.23 242.13 55.32 242.41 56.38 242.77 57.41 243.22 58.43 243.72 59.42 244.28 60.34 244.92 61.26 245.62 62.1 246.4 62.88 247.21 63.62 248.09 64.29 249.01 64.89"/>
  <polyline class="cls-1" points="240.4 52.04 240.4 52.04 240.4 52.08"/>
  <polyline class="cls-1" points="241.74 58.47 242.17 59.42 242.66 60.3 243.19 61.15 243.79 62 244.42 62.77 245.09 63.52 245.84 64.22 246.61 64.89 247.42 65.49 248.27 66.06"/>
  <polyline class="cls-1" points="258.79 96.81 258.33 97.62 257.9 98.43 257.55 99.28 257.23 100.16 256.95 101.05 256.74 101.96 256.56 102.88 256.46 103.8 256.39 104.72 256.35 105.67"/>
  <polyline class="cls-1" points="264.33 91.2 265.25 90.6 266.13 89.92 266.94 89.18 267.72 88.41 268.42 87.56 269.06 86.64 269.62 85.72 270.12 84.73 270.57 83.71 270.93 82.69 271.21 81.63 271.39 80.53 271.53 79.44 271.56 78.34"/>
  <line class="cls-1" x1="271.6" y1="78.31" x2="271.6" y2="64.75"/>
  <polyline class="cls-1" points="271.6 64.75 271.56 63.66 271.49 62.6 271.32 61.5 271.07 60.48 270.79 59.42 270.4 58.4 269.97 57.41 269.48 56.45 268.95 55.54 268.32 54.65 267.64 53.81 266.94 52.99 266.16 52.25 265.35 51.55 264.47 50.88 263.59 50.28"/>
  <polyline class="cls-1" points="256.35 37.42 256.39 38.52 256.53 39.61 256.71 40.71 256.99 41.77 257.34 42.79 257.8 43.82 258.29 44.8 258.86 45.72 259.49 46.64 260.2 47.49 260.98 48.26 261.79 49.01 262.67 49.68 263.59 50.28"/>
  <line class="cls-1" x1="248.98" y1="64.89" x2="263.59" y2="50.28"/>
  <line class="cls-1" x1="271.6" y1="64.75" x2="256.99" y2="79.37"/>
  <line class="cls-1" x1="256.35" y1="97.27" x2="270.93" y2="82.65"/>
  <line class="cls-1" x1="264.36" y1="91.2" x2="254.76" y2="100.8"/>
  <line class="cls-1" x1="241.71" y1="120.29" x2="256.32" y2="105.64"/>
  <polyline class="cls-1" points="246.79 73.05 246.33 72.84 245.84 72.66 245.34 72.59 244.85 72.59 244.35 72.66 243.86 72.84 243.4 73.05 242.98 73.33 242.62 73.65 242.31 74.04 242.06 74.5 241.85 74.95 241.74 75.45 241.71 75.94"/>
  <polyline class="cls-1" points="251.87 81.77 251.84 80.89 251.73 80.04 251.52 79.16 251.27 78.34 250.92 77.53 250.49 76.72 250.04 76.01 249.51 75.31 248.91 74.64 248.24 74.07 247.53 73.54 246.79 73.05"/>
  <polyline class="cls-1" points="241.71 95.82 241.74 96.31 241.85 96.81 242.06 97.27 242.31 97.73 242.62 98.12 242.98 98.43 243.4 98.72 243.86 98.93 244.35 99.1 244.85 99.17 245.34 99.17 245.84 99.1 246.33 98.93 246.79 98.72"/>
  <polyline class="cls-1" points="246.79 98.72 247.53 98.22 248.24 97.69 248.91 97.13 249.51 96.46 250.04 95.75 250.49 95.01 250.92 94.23 251.27 93.42 251.52 92.61 251.73 91.72 251.84 90.88 251.87 89.99"/>
  <line class="cls-1" x1="251.87" y1="89.99" x2="251.87" y2="81.77"/>
  <line class="cls-1" x1="241.71" y1="95.82" x2="241.71" y2="75.94"/>
  <line class="cls-1" x1="241.71" y1="58.47" x2="241.71" y2="113.26"/>
  <line class="cls-1" x1="241.71" y1="95.82" x2="251.87" y2="85.62"/>
  <polyline class="cls-1" points="249.01 64.93 248.8 65.07 248.62 65.21 248.48 65.39 248.38 65.6 248.34 65.81 248.31 66.06"/>
  <polyline class="cls-1" points="253.85 99.67 254.55 99.14 255.19 98.54 255.79 97.94 256.35 97.27"/>
  <polyline class="cls-1" points="249.05 104.65 249.82 104.29 250.6 103.91 251.38 103.45 252.12 102.99 252.82 102.49 253.49 101.96 254.16 101.36 254.76 100.76"/>
  <polyline class="cls-1" points="15.78 120.32 15.75 119.23 15.68 118.17 15.5 117.07 15.25 116.05 14.97 114.99 14.58 113.97 14.16 112.98 13.66 112.03 13.14 111.11 12.5 110.22 11.83 109.38 11.12 108.57 10.35 107.82 9.54 107.12 8.65 106.45 7.77 105.85"/>
  <polyline class="cls-1" points="15.78 113.26 15.32 112.2 14.76 111.21 14.19 110.22 13.52 109.31 12.82 108.39 12.04 107.54 11.23 106.77 10.35 106.02 9.43 105.35 8.48 104.72"/>
  <polyline class="cls-1" points=".57 93 .61 94.09 .75 95.18 .92 96.28 1.21 97.34 1.56 98.36 2.02 99.39 2.51 100.37 3.08 101.29 3.71 102.21 4.42 103.06 5.19 103.83 6.01 104.58 6.89 105.25 7.81 105.85"/>
  <polyline class="cls-1" points="1.91 93 1.95 93.98 2.05 94.97 2.23 95.96 2.51 96.95 2.83 97.87 3.22 98.79 3.68 99.7 4.21 100.55 4.77 101.36 5.41 102.14 6.11 102.85 6.85 103.52 7.67 104.12 8.48 104.68"/>
  <line class="cls-1" x1=".54" y1="92.96" x2=".5" y2="79.37"/>
  <line class="cls-1" x1="1.88" y1="92.96" x2="1.88" y2="79.37"/>
  <polyline class="cls-1" points="8.55 64.93 7.67 65.53 6.78 66.2 5.97 66.91 5.19 67.65 4.49 68.46 3.82 69.31 3.18 70.19 2.65 71.11 2.16 72.06 1.74 73.05 1.35 74.07 1.07 75.13 .82 76.16 .64 77.25 .57 78.31 .54 79.4"/>
  <polyline class="cls-1" points="9.25 66.13 8.44 66.66 7.63 67.26 6.89 67.89 6.18 68.6 5.51 69.34 4.88 70.12 4.31 70.93 3.82 71.78 3.36 72.66 2.97 73.58 2.62 74.5 2.37 75.45 2.12 76.44 1.98 77.39 1.91 78.38 1.88 79.37"/>
  <polyline class="cls-1" points="8.51 64.93 9.43 64.33 10.31 63.66 11.12 62.92 11.9 62.14 12.61 61.29 13.24 60.37 13.81 59.46 14.3 58.47 14.76 57.44 15.11 56.42 15.39 55.36 15.57 54.27 15.71 53.17 15.75 52.08"/>
  <polyline class="cls-1" points="9.25 66.09 10.1 65.53 10.91 64.93 11.65 64.29 12.39 63.59 13.1 62.84 13.73 62.07 14.3 61.26 14.86 60.37 15.32 59.49 15.78 58.57"/>
  <line class="cls-1" x1="15.78" y1="52.04" x2="15.78" y2="119.3"/>
  <polyline class="cls-1" points="10.91 72.84 10.17 73.33 9.46 73.86 8.79 74.43 8.19 75.1 7.67 75.8 7.21 76.51 6.78 77.32 6.43 78.13 6.18 78.94 5.97 79.83 5.87 80.67 5.83 81.56"/>
  <polyline class="cls-1" points="15.75 74.53 15.53 74.11 15.29 73.72 14.93 73.33 14.58 73.05 14.16 72.8 13.73 72.59 13.24 72.48 12.78 72.41 12.29 72.41 11.79 72.52 11.34 72.66 10.91 72.87"/>
  <line class="cls-1" x1="15.78" y1="96.84" x2="15.78" y2="74.5"/>
  <line class="cls-1" x1="5.83" y1="89.78" x2="5.83" y2="81.56"/>
  <polyline class="cls-1" points="5.83 89.78 5.87 90.67 5.97 91.51 6.18 92.4 6.43 93.21 6.78 94.02 7.21 94.8 7.67 95.54 8.19 96.24 8.79 96.91 9.46 97.48 10.17 98.01 10.91 98.5"/>
  <polyline class="cls-1" points="10.91 98.5 11.34 98.72 11.79 98.86 12.29 98.96 12.78 98.96 13.24 98.89 13.73 98.79 14.16 98.57 14.58 98.33 14.93 98.04 15.29 97.66 15.53 97.27 15.75 96.84"/>
  <line class="cls-1" x1="7.7" y1="79.69" x2="7.7" y2="79.69"/>
  <line class="cls-1" x1="5.83" y1="89.78" x2="15.78" y2="79.83"/>
  <line class="cls-1" x1="5.83" y1="81.56" x2="7.7" y2="79.69"/>
  <line class="cls-1" x1="7.7" y1="79.69" x2="14.48" y2="72.94"/>
  <line class="cls-1" x1="10.91" y1="98.5" x2="15.78" y2="93.67"/>
  <line class="cls-1" x1="150.31" y1="77.99" x2="150.31" y2="80.82"/>
  <line class="cls-1" x1="148.61" y1="77.99" x2="148.61" y2="80.82"/>
  <line class="cls-1" x1="141.84" y1="89.29" x2="102.84" y2="89.29"/>
  <line class="cls-1" x1="141.84" y1="87.59" x2="102.84" y2="87.59"/>
  <polyline class="cls-1" points="141.84 89.29 142.68 89.25 143.5 89.11 144.31 88.94 145.08 88.65 145.82 88.3 146.53 87.88 147.2 87.38 147.84 86.82 148.4 86.18 148.89 85.51 149.32 84.8 149.67 84.06 149.95 83.29 150.13 82.47 150.27 81.66 150.31 80.82"/>
  <polyline class="cls-1" points="141.84 87.59 142.51 87.56 143.14 87.45 143.81 87.31 144.41 87.06 145.05 86.78 145.61 86.46 146.14 86.04 146.64 85.62 147.06 85.12 147.48 84.59 147.8 84.03 148.08 83.39 148.33 82.79 148.47 82.12 148.58 81.49 148.61 80.82"/>
  <line class="cls-1" x1="55.34" y1="77.99" x2="55.34" y2="80.82"/>
  <line class="cls-1" x1="57.04" y1="77.99" x2="57.04" y2="80.82"/>
  <line class="cls-1" x1="63.81" y1="89.29" x2="102.84" y2="89.29"/>
  <line class="cls-1" x1="63.81" y1="87.59" x2="102.84" y2="87.59"/>
  <polyline class="cls-1" points="55.34 80.82 55.38 81.66 55.52 82.47 55.69 83.29 55.98 84.06 56.33 84.8 56.75 85.51 57.25 86.18 57.81 86.82 58.45 87.38 59.12 87.88 59.82 88.3 60.56 88.65 61.34 88.94 62.15 89.11 62.96 89.25 63.81 89.29"/>
  <polyline class="cls-1" points="57.04 80.82 57.07 81.49 57.18 82.12 57.32 82.79 57.56 83.39 57.85 84.03 58.16 84.59 58.59 85.12 59.01 85.62 59.51 86.04 60.04 86.46 60.6 86.78 61.24 87.06 61.83 87.31 62.51 87.45 63.14 87.56 63.81 87.59"/>
  <line class="cls-1" x1="55.34" y1="80.82" x2="57.04" y2="80.82"/>
  <line class="cls-1" x1="150.31" y1="80.82" x2="148.61" y2="80.82"/>
  <line class="cls-1" x1="141.84" y1="89.29" x2="141.84" y2="87.59"/>
  <line class="cls-1" x1="63.81" y1="89.29" x2="63.81" y2="87.59"/>
  <polyline class="cls-1" points="179.17 178.51 181.86 178.47 184.5 178.33 187.18 178.15 189.83 177.87 192.48 177.48 195.12 177.06 197.74 176.53 200.35 175.93 202.92 175.26 205.5 174.48 208.04 173.67 210.55 172.75 213.05 171.76 215.49 170.7 217.92 169.57 220.29 168.34 222.65 167.07 224.94 165.73 227.2 164.31 229.43 162.83 231.61 161.28 233.73 159.65 235.81 157.96 237.86 156.23 239.8 154.39 241.74 152.56"/>
  <polygon class="cls-1" points="104.54 108.57 104.5 108.21 104.39 107.86 104.22 107.58 103.97 107.29 103.69 107.08 103.37 106.94 103.02 106.87 102.67 106.87 102.31 106.94 101.99 107.08 101.71 107.29 101.47 107.58 101.29 107.86 101.18 108.21 101.15 108.57 101.18 108.92 101.29 109.27 101.47 109.55 101.71 109.84 101.99 110.05 102.31 110.19 102.67 110.26 103.02 110.26 103.37 110.19 103.69 110.05 103.97 109.84 104.22 109.55 104.39 109.27 104.5 108.92 104.54 108.57 104.54 108.57"/>
  <line class="cls-1" x1="256.32" y1="105.64" x2="256.32" y2="97.3"/>
  <line class="cls-1" x1="256.35" y1="137.94" x2="256.35" y2="93.84"/>
  <polyline class="cls-1" points="275.97 39.44 275.16 41.38 274.42 43.32 273.75 45.3 273.15 47.28 272.62 49.29 272.13 51.34 271.7 53.38 271.35 55.43 271.07 57.48 270.82 59.56"/>
  <line class="cls-1" x1="241.67" y1="52.11" x2="241.71" y2="52.04"/>
  <line class="cls-1" x1="252.65" y1="37.39" x2="256.32" y2="32.52"/>
  <line class="cls-1" x1="256.28" y1="32.55" x2="273.79" y2="15.11"/>
  <line class="cls-1" x1="275.97" y1="39.4" x2="277.49" y2="35.77"/>
  <polyline class="cls-1" points="273.79 15.11 274.53 14.86 275.23 14.76 275.83 14.79 276.36 14.97 276.86 15.25 277.24 15.68 277.63 16.21 277.91 16.81 278.16 17.51 278.37 18.32 278.55 19.17 278.66 20.05 278.8 22.03 278.8 24.08 278.73 26.2 278.55 28.28 278.34 30.26 278.13 32.06 277.98 32.87 277.88 33.58 277.77 34.21 277.7 34.78 277.63 35.2 277.56 35.55 277.53 35.77 277.53 35.84"/>
  <line class="cls-1" x1="30.39" y1="37.39" x2="34.06" y2="32.52"/>
  <line class="cls-1" x1="34.03" y1="32.55" x2="51.53" y2="15.11"/>
  <polyline class="cls-1" points="51.53 15.11 52.34 14.83 53.05 14.76"/>
  <line class="cls-1" x1="39.5" y1="37.39" x2="43.13" y2="32.52"/>
  <line class="cls-1" x1="43.13" y1="32.55" x2="52.41" y2="23.3"/>
  <line class="cls-1" x1="243.65" y1="37.39" x2="247.28" y2="32.52"/>
  <line class="cls-1" x1="247.28" y1="32.55" x2="264.79" y2="15.11"/>
  <polyline class="cls-1" points="266.16 14.76 265.81 14.79 265.46 14.86 265.14 14.97 264.82 15.15"/>
  <line class="cls-1" x1="266.16" y1="14.72" x2="275.34" y2="14.76"/>
  <polygon class="cls-1" points="272.13 26.9 272.59 27.05 273.08 27.12 273.57 27.12 274.07 27.01 274.56 26.83 275.06 26.59 275.48 26.27 275.9 25.88 276.26 25.46 276.57 24.96 276.86 24.43 277.03 23.87 277.17 23.3 277.21 22.74 277.21 22.17 277.1 21.64 276.96 21.11 276.75 20.65 276.47 20.23 276.11 19.88 275.73 19.56 275.3 19.35 274.84 19.21 274.35 19.14 273.86 19.14 273.36 19.24 272.87 19.42 272.37 19.67 271.95 19.98 271.53 20.37 271.17 20.8 270.86 21.29 270.57 21.82 270.4 22.38 270.26 22.95 270.22 23.51 270.22 24.08 270.33 24.61 270.47 25.14 270.68 25.6 270.96 26.02 271.32 26.37 271.7 26.69 272.13 26.9 272.13 26.9"/>
  <polyline class="cls-1" points="270.61 25.49 271.24 25.81 271.81 26.06 272.34 26.23 272.8 26.34 273.19 26.41 273.57 26.41 274.17 26.3 274.7 26.09 275.13 25.81 275.48 25.46 275.8 25.07 276.33 24.19 276.5 23.69 276.64 23.16 276.71 22.53 276.71 22.17 276.64 21.75 276.5 21.29 276.33 20.76 276.04 20.16 275.66 19.49"/>
</svg>