<?xml version="1.0" encoding="UTF-8"?>
<svg id="Layer_1" data-name="Layer 1" xmlns="http://www.w3.org/2000/svg" viewBox="0 0 152.5 139.69">
  <defs>
    <style>
      .cls-1, .cls-2, .cls-3 {
        stroke-width: .75px;
      }

      .cls-1, .cls-2, .cls-3, .cls-4 {
        fill: none;
        stroke-linecap: square;
        stroke-miterlimit: 10;
      }

      .cls-1, .cls-4 {
        stroke: #212830;
      }

      .cls-2 {
        stroke: #ed2024;
      }

      .cls-3 {
        stroke: #4377bc;
      }

      .cls-4 {
        stroke-width: .5px;
      }
    </style>
  </defs>
  <line class="cls-2" x1="30.41" y1="69.43" x2="30.41" y2="72.82"/>
  <line class="cls-2" x1="30.41" y1="76.21" x2="30.41" y2="82.95"/>
  <polyline class="cls-2" points="30.41 86.31 30.41 86.34 30.41 89.7"/>
  <line class="cls-2" x1="51.62" y1="69.43" x2="51.62" y2="72.82"/>
  <line class="cls-2" x1="51.62" y1="76.21" x2="51.62" y2="82.95"/>
  <polyline class="cls-2" points="51.62 86.31 51.62 86.34 51.62 89.7"/>
  <line class="cls-1" x1="75.9" y1="84.19" x2="75.9" y2="83.94"/>
  <line class="cls-1" x1="6.06" y1="85.04" x2="6.06" y2="83.94"/>
  <polyline class="cls-4" points="39.3 138.98 39.3 135.28 41.59 135.28"/>
  <line class="cls-4" x1="39.3" y1="137.04" x2="40.71" y2="137.04"/>
  <polyline class="cls-4" points="42.48 135.28 43.89 138.98 45.33 135.28"/>
  <polygon class="cls-1" points="17.14 11.85 17.14 18.31 64.85 18.31 64.85 11.85 17.14 11.85 17.14 11.85"/>
  <line class="cls-1" x1="74.1" y1="5.04" x2="74.1" y2="4.12"/>
  <line class="cls-1" x1="74.1" y1="4.12" x2="74.1" y2="1.93"/>
  <line class="cls-1" x1="7.89" y1="4.12" x2="7.89" y2="5.04"/>
  <line class="cls-1" x1="7.89" y1="1.93" x2="7.89" y2="4.12"/>
  <polyline class="cls-1" points="64.85 29.75 65.8 29.71 66.76 29.57 67.71 29.4 68.63 29.11 69.51 28.76 70.39 28.34 71.2 27.81 71.98 27.24 72.72 26.61 73.39 25.94 73.99 25.19 74.52 24.38 75.01 23.57 75.4 22.69 75.75 21.77 76 20.85 76.18 19.9 76.25 18.95"/>
  <line class="cls-1" x1="17.14" y1="29.78" x2="64.85" y2="29.78"/>
  <polyline class="cls-1" points="5.74 18.95 5.81 19.9 5.99 20.85 6.23 21.77 6.59 22.69 6.97 23.57 7.47 24.38 8 25.19 8.6 25.94 9.27 26.61 10.01 27.24 10.79 27.81 11.6 28.34 12.48 28.76 13.36 29.11 14.28 29.4 15.23 29.57 16.18 29.71 17.14 29.75"/>
  <polyline class="cls-1" points="11.81 1.72 11.6 1.86 11.39 1.96"/>
  <polyline class="cls-1" points="7.93 5.07 7.47 5.74 7.04 6.48 6.69 7.22 6.37 7.97 6.13 8.78 5.95 9.55 5.81 10.37 5.74 11.21"/>
  <line class="cls-1" x1="5.67" y1="11.85" x2="5.7" y2="11.18"/>
  <polyline class="cls-1" points="17.14 .38 16.36 .38 15.62 .48 14.21 .73 12.94 1.15 11.81 1.68"/>
  <polyline class="cls-1" points="70.6 1.96 70.39 1.86 70.18 1.72"/>
  <line class="cls-1" x1="64.85" y1=".38" x2="61.89" y2=".38"/>
  <polyline class="cls-1" points="70.18 1.68 69.05 1.15 67.78 .73 66.37 .48 65.63 .38 64.85 .38"/>
  <line class="cls-1" x1="76.28" y1="11.18" x2="76.32" y2="11.85"/>
  <polyline class="cls-1" points="76.25 11.21 76.18 10.37 76.04 9.55 75.86 8.78 75.61 7.97 75.3 7.22 74.94 6.48 74.52 5.74 74.06 5.07"/>
  <line class="cls-1" x1="5.67" y1="18.31" x2="5.67" y2="17.78"/>
  <line class="cls-1" x1="5.7" y1="18.95" x2="5.67" y2="18.31"/>
  <line class="cls-1" x1="5.67" y1="12.38" x2="5.67" y2="11.85"/>
  <line class="cls-1" x1="5.67" y1="12.38" x2="5.67" y2="17.78"/>
  <line class="cls-1" x1="76.32" y1="18.31" x2="76.28" y2="18.95"/>
  <line class="cls-1" x1="76.32" y1="17.78" x2="76.32" y2="18.31"/>
  <line class="cls-1" x1="76.32" y1="17.78" x2="76.32" y2="12.38"/>
  <line class="cls-1" x1="76.32" y1="11.85" x2="76.32" y2="12.38"/>
  <line class="cls-1" x1="61.89" y1=".38" x2="20.1" y2=".38"/>
  <line class="cls-1" x1="20.1" y1=".38" x2="17.14" y2=".38"/>
  <line class="cls-1" x1="74.1" y1="1.93" x2="70.64" y2="1.93"/>
  <line class="cls-1" x1="7.89" y1="1.93" x2="11.35" y2="1.93"/>
  <line class="cls-1" x1="64.85" y1="29.78" x2="17.14" y2="29.78"/>
  <polyline class="cls-1" points="1.33 11.88 1.15 11.92 1.05 12.03 .94 12.13 .9 12.31"/>
  <line class="cls-1" x1="1.33" y1="11.88" x2="3.41" y2="11.88"/>
  <line class="cls-1" x1="3.41" y1="11.88" x2="5.67" y2="11.88"/>
  <line class="cls-1" x1="5.67" y1="18.27" x2="3.41" y2="18.27"/>
  <polyline class="cls-1" points=".9 17.82 .94 17.99 1.05 18.1 1.15 18.2 1.33 18.24"/>
  <line class="cls-1" x1="3.41" y1="18.27" x2="1.33" y2="18.27"/>
  <line class="cls-1" x1="76.32" y1="11.88" x2="78.61" y2="11.88"/>
  <polyline class="cls-1" points="81.08 12.31 81.05 12.13 80.94 12.03 80.84 11.92 80.66 11.88"/>
  <line class="cls-1" x1="78.61" y1="11.88" x2="80.66" y2="11.88"/>
  <line class="cls-1" x1="78.61" y1="18.27" x2="76.32" y2="18.27"/>
  <polyline class="cls-1" points="80.66 18.24 80.84 18.2 80.94 18.1 81.05 17.99 81.08 17.82"/>
  <line class="cls-1" x1="80.66" y1="18.27" x2="78.61" y2="18.27"/>
  <line class="cls-1" x1="81.08" y1="17.82" x2="81.08" y2="12.31"/>
  <line class="cls-2" x1="22.96" y1="16.65" x2="26.14" y2="16.65"/>
  <polyline class="cls-2" points="26.14 16.65 26.49 16.62 26.84 16.51 27.12 16.3 27.37 16.05 27.58 15.77 27.69 15.42 27.72 15.06 27.69 14.71 27.58 14.36 27.37 14.07 27.12 13.83 26.84 13.61 26.49 13.51 26.14 13.47"/>
  <line class="cls-2" x1="26.14" y1="13.47" x2="22.96" y2="13.47"/>
  <polyline class="cls-2" points="22.96 13.47 22.61 13.51 22.25 13.61 21.97 13.83 21.73 14.07 21.51 14.36 21.41 14.71 21.37 15.06 21.41 15.42 21.51 15.77 21.73 16.05 21.97 16.3 22.25 16.51 22.61 16.62 22.96 16.65"/>
  <line class="cls-2" x1="44.7" y1="11.36" x2="37.29" y2="11.36"/>
  <polyline class="cls-2" points="37.29 11.36 36.65 11.39 36.05 11.57 35.49 11.81 34.96 12.17"/>
  <polyline class="cls-2" points="34.99 12.17 34.64 12.48 34.32 12.84 34.08 13.23 33.86 13.69 33.69 14.11 33.62 14.6 33.58 15.06 33.62 15.52 33.69 16.02 33.86 16.44 34.08 16.9 34.32 17.29 34.64 17.64 34.99 17.96"/>
  <polyline class="cls-2" points="34.96 17.99 35.49 18.31 36.05 18.59 36.65 18.73 37.29 18.8"/>
  <line class="cls-2" x1="37.29" y1="18.8" x2="44.7" y2="18.8"/>
  <polyline class="cls-2" points="44.7 18.8 45.33 18.73 45.93 18.59 46.5 18.31 47.03 17.99"/>
  <polyline class="cls-2" points="46.99 17.96 47.35 17.64 47.66 17.29 47.91 16.9 48.12 16.44 48.3 16.02 48.37 15.52 48.4 15.06 48.37 14.6 48.3 14.11 48.12 13.69 47.91 13.23 47.66 12.84 47.35 12.48 46.99 12.17"/>
  <polyline class="cls-2" points="47.03 12.17 46.5 11.81 45.93 11.57 45.33 11.39 44.7 11.36"/>
  <line class="cls-1" x1="17.14" y1=".38" x2="64.85" y2=".38"/>
  <polygon class="cls-2" points="56.91 15.06 56.87 14.71 56.77 14.36 56.56 14.07 56.31 13.83 56.03 13.61 55.67 13.51 55.32 13.47 54.97 13.51 54.62 13.61 54.33 13.83 54.09 14.07 53.87 14.36 53.77 14.71 53.73 15.06 53.77 15.42 53.87 15.77 54.09 16.05 54.33 16.3 54.62 16.51 54.97 16.62 55.32 16.65 55.67 16.62 56.03 16.51 56.31 16.3 56.56 16.05 56.77 15.77 56.87 15.42 56.91 15.06 56.91 15.06"/>
  <line class="cls-1" x1="76.32" y1="11.85" x2="76.32" y2="11.88"/>
  <line class="cls-1" x1="76.32" y1="18.27" x2="76.32" y2="18.31"/>
  <line class="cls-1" x1="76.32" y1="6.02" x2="76.32" y2="11.85"/>
  <line class="cls-1" x1="76.32" y1="2.56" x2="76.32" y2="6.02"/>
  <line class="cls-1" x1="76.32" y1="1.93" x2="76.32" y2="2.56"/>
  <line class="cls-1" x1=".9" y1="17.82" x2=".9" y2="12.31"/>
  <line class="cls-1" x1="5.67" y1="2.56" x2="5.67" y2="1.93"/>
  <line class="cls-1" x1="5.67" y1="2.56" x2="5.67" y2="6.02"/>
  <line class="cls-1" x1="5.67" y1="11.85" x2="5.67" y2="6.02"/>
  <line class="cls-1" x1="5.67" y1="18.31" x2="5.67" y2="18.27"/>
  <line class="cls-1" x1="5.67" y1="11.88" x2="5.67" y2="11.85"/>
  <polyline class="cls-1" points="73.14 3.91 73.64 4.33 74.2 4.61"/>
  <polyline class="cls-1" points="7.79 4.61 8.39 4.33 8.84 3.91"/>
  <line class="cls-1" x1="74.2" y1="4.61" x2="74.2" y2="3.48"/>
  <line class="cls-1" x1="74.2" y1="2.56" x2="74.2" y2="3.48"/>
  <line class="cls-1" x1="7.79" y1="3.48" x2="7.79" y2="4.61"/>
  <line class="cls-1" x1="7.79" y1="2.56" x2="7.79" y2="3.48"/>
  <line class="cls-1" x1="7.79" y1="1.93" x2="7.79" y2="2.56"/>
  <line class="cls-1" x1="74.2" y1="1.93" x2="74.2" y2="2.56"/>
  <polyline class="cls-1" points="17.14 .41 16.22 .45 15.3 .55 14.39 .73 13.5 1.01 12.66 1.33 11.81 1.72 11 2.21 10.26 2.71 9.52 3.31 8.88 3.94"/>
  <polyline class="cls-1" points="73.11 3.94 72.47 3.31 71.73 2.71 70.99 2.21 70.18 1.72 69.33 1.33 68.48 1.01 67.6 .73 66.68 .55 65.77 .45 64.85 .41"/>
  <polyline class="cls-1" points="5.7 18.31 5.74 19.19 5.84 20.11 6.02 20.99 6.27 21.84 6.59 22.69 6.94 23.5 7.4 24.28 7.89 25.02 8.46 25.72 9.06 26.4 9.73 27 10.43 27.56 11.17 28.05 11.95 28.51 12.76 28.87 13.61 29.18 14.46 29.43 15.34 29.61 16.26 29.71 17.14 29.75"/>
  <polyline class="cls-1" points="64.85 29.75 65.73 29.71 66.65 29.61 67.53 29.43 68.38 29.18 69.23 28.87 70.04 28.51 70.81 28.05 71.55 27.56 72.26 27 72.93 26.4 73.53 25.72 74.1 25.02 74.59 24.28 75.05 23.5 75.4 22.69 75.72 21.84 75.97 20.99 76.14 20.11 76.25 19.19 76.28 18.31"/>
  <line class="cls-1" x1="7.79" y1="1.93" x2="5.67" y2="1.93"/>
  <line class="cls-1" x1="76.32" y1="1.93" x2="74.2" y2="1.93"/>
  <line class="cls-1" x1="17.14" y1="11.85" x2="64.85" y2="11.85"/>
  <polygon class="cls-1" points="76.32 18.31 64.85 18.31 64.85 11.85 76.32 11.85 76.32 18.31 76.32 18.31"/>
  <line class="cls-1" x1="64.85" y1="18.31" x2="64.85" y2="29.78"/>
  <line class="cls-1" x1="64.85" y1="11.85" x2="64.85" y2="18.31"/>
  <line class="cls-1" x1="64.85" y1=".38" x2="64.85" y2="11.85"/>
  <line class="cls-1" x1="64.85" y1="11.85" x2="76.32" y2="11.85"/>
  <line class="cls-1" x1="76.32" y1="18.31" x2="64.85" y2="18.31"/>
  <line class="cls-1" x1="17.14" y1="29.78" x2="17.14" y2="18.31"/>
  <line class="cls-1" x1="17.14" y1="18.31" x2="5.67" y2="18.31"/>
  <line class="cls-1" x1="5.67" y1="11.85" x2="17.14" y2="11.85"/>
  <line class="cls-1" x1="17.14" y1="11.85" x2="17.14" y2=".38"/>
  <line class="cls-1" x1="5.67" y1="4.12" x2="7.79" y2="4.12"/>
  <line class="cls-1" x1="3.16" y1="12.31" x2="3.16" y2="17.82"/>
  <line class="cls-1" x1="3.16" y1="12.31" x2="5.67" y2="12.31"/>
  <line class="cls-1" x1="3.16" y1="12.31" x2=".9" y2="12.31"/>
  <line class="cls-1" x1=".9" y1="17.82" x2="3.16" y2="17.82"/>
  <line class="cls-1" x1="5.67" y1="17.82" x2="3.16" y2="17.82"/>
  <line class="cls-1" x1="78.82" y1="17.82" x2="76.32" y2="17.82"/>
  <line class="cls-1" x1="78.82" y1="17.82" x2="81.08" y2="17.82"/>
  <line class="cls-1" x1="81.08" y1="12.31" x2="78.82" y2="12.31"/>
  <line class="cls-1" x1="76.32" y1="12.31" x2="78.82" y2="12.31"/>
  <line class="cls-1" x1="7.79" y1="1.93" x2="7.89" y2="1.93"/>
  <line class="cls-1" x1="74.1" y1="1.93" x2="74.2" y2="1.93"/>
  <line class="cls-2" x1="41.52" y1="29.78" x2="40.46" y2="29.78"/>
  <line class="cls-2" x1="70.81" y1="4.96" x2="70.81" y2="3.23"/>
  <line class="cls-2" x1="75.26" y1="5.39" x2="75.26" y2="2.81"/>
  <line class="cls-2" x1="74.84" y1="3.23" x2="74.84" y2="4.96"/>
  <line class="cls-2" x1="11.21" y1="3.23" x2="11.21" y2="4.96"/>
  <line class="cls-2" x1="6.73" y1="2.78" x2="6.73" y2="5.42"/>
  <line class="cls-2" x1="5.67" y1="5.42" x2="5.67" y2="2.78"/>
  <line class="cls-2" x1="7.15" y1="4.96" x2="7.15" y2="3.23"/>
  <polyline class="cls-2" points="2.49 18.27 5.67 18.27 5.67 11.88 2.49 11.88"/>
  <line class="cls-2" x1="2.49" y1="11.88" x2="2.49" y2="18.27"/>
  <polyline class="cls-2" points="79.49 18.27 79.39 11.88 76.32 11.88 76.32 18.27"/>
  <line class="cls-2" x1="76.32" y1="18.27" x2="79.49" y2="18.27"/>
  <line class="cls-2" x1="70.81" y1="3.23" x2="74.84" y2="3.23"/>
  <line class="cls-2" x1="75.26" y1="3.23" x2="75.26" y2="2.81"/>
  <line class="cls-2" x1="70.81" y1="4.96" x2="74.84" y2="4.96"/>
  <line class="cls-2" x1="150.53" y1="80.41" x2="150.53" y2="80.87"/>
  <polyline class="cls-2" points="149.23 84.51 149.76 83.34 150.18 82.28 150.32 81.86 150.46 81.47 150.53 81.15 150.53 80.87"/>
  <line class="cls-2" x1="147.5" y1="85.57" x2="142.8" y2="85.57"/>
  <polyline class="cls-1" points="147.75 85.5 148.03 85.46 148.31 85.32 148.59 85.18 148.8 84.97 149.02 84.76 149.19 84.51"/>
  <line class="cls-1" x1="146.02" y1="87.3" x2="146.26" y2="87.44"/>
  <polyline class="cls-2" points="121.63 85.53 121.17 85.53 121.14 86.41 121.14 89.06"/>
  <polyline class="cls-2" points="121.63 88.53 121.49 88.57 121.38 88.64 121.28 88.71 121.21 88.82 121.14 88.92 121.14 89.06"/>
  <polyline class="cls-2" points="121.63 88.57 121.63 86.41 121.63 85.53"/>
  <polygon class="cls-2" points="121.74 88.82 121.67 88.39 121.74 88.82 121.74 88.82"/>
  <polyline class="cls-2" points="121.74 88.29 121.7 88.29 121.67 88.32 121.63 88.36 121.63 88.43"/>
  <polyline class="cls-2" points="121.74 88.29 121.7 88.29 121.67 88.32 121.63 88.36 121.63 88.43"/>
  <polygon class="cls-2" points="122.16 88.29 121.74 88.29 122.16 88.29 122.16 88.29"/>
  <polygon class="cls-2" points="122.16 88.29 122.16 85.81 122.16 88.29 122.16 88.29"/>
  <polyline class="cls-2" points="121.74 88.78 121.84 89.1 121.95 89.42 122.09 89.7 122.23 89.98"/>
  <polyline class="cls-2" points="121.74 88.78 121.84 89.1 121.95 89.42 122.09 89.7 122.23 89.98"/>
  <polygon class="cls-2" points="122.23 89.98 122.58 90.62 122.23 89.98 122.23 89.98"/>
  <polygon class="cls-2" points="122.8 90.62 122.58 90.62 122.8 90.62 122.8 90.62"/>
  <polyline class="cls-2" points="123.36 91.25 121.63 91.25 121.63 85.53 123.4 85.57"/>
  <line class="cls-2" x1="123.4" y1="85.57" x2="123.36" y2="91.25"/>
  <polygon class="cls-2" points="123.36 91.25 123.4 85.57 123.36 91.25 123.36 91.25"/>
  <polygon class="cls-2" points="121.63 91.25 123.36 91.25 121.63 91.25 121.63 91.25"/>
  <polygon class="cls-2" points="121.63 85.92 121.63 88.18 121.63 85.92 121.63 85.92"/>
  <polygon class="cls-2" points="121.63 91.25 121.63 85.53 121.63 91.25 121.63 91.25"/>
  <polygon class="cls-2" points="122.05 88.18 121.63 88.18 122.05 88.18 122.05 88.18"/>
  <polygon class="cls-2" points="122.05 88.18 122.05 86.24 122.05 88.18 122.05 88.18"/>
  <polygon class="cls-2" points="123.22 85.5 123.25 79.92 123.22 85.5 123.22 85.5"/>
  <polygon class="cls-2" points="122.8 80.66 122.8 90.62 122.8 80.66 122.8 80.66"/>
  <polygon class="cls-2" points="122.05 86.24 121.95 86.24 122.05 86.24 122.05 86.24"/>
  <polygon class="cls-2" points="121.95 86.24 121.63 85.92 121.95 86.24 121.95 86.24"/>
  <polygon class="cls-2" points="121.42 80.66 121.42 85.5 121.42 80.66 121.42 80.66"/>
  <polygon class="cls-2" points="121.63 80.66 121.63 85.28 121.63 80.66 121.63 80.66"/>
  <polyline class="cls-2" points="126.47 71.97 125.79 72.68 125.19 73.46 124.67 74.23 124.17 75.08 123.78 75.96 123.43 76.88 123.18 77.8 122.97 78.75 122.87 79.71 122.83 80.66"/>
  <polyline class="cls-2" points="126.47 71.97 125.79 72.68 125.19 73.46 124.67 74.23 124.17 75.08 123.78 75.96 123.43 76.88 123.18 77.8 122.97 78.75 122.87 79.71 122.83 80.66"/>
  <polyline class="cls-2" points="125.62 71.16 125.02 71.8 124.45 72.47 123.96 73.18 123.5 73.95 123.43 74.06"/>
  <polyline class="cls-2" points="122.12 77.13 122.12 77.16 121.95 78.05 121.77 78.89 121.7 79.78 121.67 80.66"/>
  <polyline class="cls-2" points="125.62 71.16 125.02 71.8 124.45 72.47 123.96 73.18 123.5 73.95 123.43 74.06"/>
  <polyline class="cls-2" points="122.12 77.13 122.12 77.16 121.95 78.05 121.77 78.89 121.7 79.78 121.67 80.66"/>
  <polyline class="cls-2" points="125.48 70.99 124.88 71.66 124.31 72.33 123.78 73.07 123.29 73.81 123.22 73.92"/>
  <polyline class="cls-2" points="121.95 77.02 121.95 77.13 121.74 77.98 121.56 78.86 121.49 79.74 121.45 80.66"/>
  <polyline class="cls-2" points="125.48 70.99 124.88 71.66 124.31 72.33 123.78 73.07 123.29 73.81 123.22 73.92"/>
  <polyline class="cls-2" points="121.95 77.02 121.95 77.13 121.74 77.98 121.56 78.86 121.49 79.74 121.45 80.66"/>
  <polygon class="cls-2" points="125.48 70.99 126.57 72.12 125.48 70.99 125.48 70.99"/>
  <polyline class="cls-2" points="126.61 72.15 126.08 72.68 125.62 73.25 125.19 73.85 124.77 74.45"/>
  <polyline class="cls-2" points="126.61 72.15 126.08 72.68 125.62 73.25 125.19 73.85 124.77 74.45"/>
  <polyline class="cls-2" points="124.77 74.45 124.42 75.08 124.14 75.72 123.85 76.39 123.64 77.06 123.47 77.76 123.36 78.47 123.29 79.18 123.25 79.88"/>
  <polyline class="cls-2" points="124.77 74.45 124.42 75.08 124.14 75.72 123.85 76.39 123.64 77.06 123.47 77.76 123.36 78.47 123.29 79.18 123.25 79.88"/>
  <polyline class="cls-2" points="123.22 85.5 121.42 85.5 121.42 80.66"/>
  <polyline class="cls-2" points="125.48 70.99 124.88 71.66 124.31 72.33 123.78 73.07 123.29 73.81 123.22 73.92"/>
  <polyline class="cls-2" points="121.95 77.02 121.95 77.13 121.74 77.98 121.56 78.86 121.49 79.74 121.45 80.66"/>
  <line class="cls-2" x1="125.48" y1="70.99" x2="126.57" y2="72.12"/>
  <polyline class="cls-2" points="126.61 72.15 126.08 72.68 125.62 73.25 125.19 73.85 124.77 74.45"/>
  <polyline class="cls-2" points="124.77 74.45 124.42 75.08 124.14 75.72 123.85 76.39 123.64 77.06 123.47 77.76 123.36 78.47 123.29 79.18 123.25 79.88"/>
  <line class="cls-2" x1="123.25" y1="79.92" x2="123.22" y2="85.5"/>
  <polygon class="cls-2" points="122.16 85.81 121.63 85.28 122.16 85.81 122.16 85.81"/>
  <line class="cls-2" x1="123.4" y1="85.57" x2="123.22" y2="85.57"/>
  <line class="cls-2" x1="123.22" y1="85.5" x2="123.22" y2="85.57"/>
  <line class="cls-2" x1="121.63" y1="85.53" x2="121.42" y2="85.53"/>
  <line class="cls-2" x1="121.42" y1="85.53" x2="121.42" y2="85.5"/>
  <line class="cls-1" x1="121.17" y1="85.5" x2="121.17" y2="85.53"/>
  <line class="cls-2" x1="120.92" y1="85.53" x2="121.91" y2="85.53"/>
  <line class="cls-2" x1="135.89" y1="69.33" x2="136.13" y2="69.33"/>
  <line class="cls-2" x1="135.89" y1="69.33" x2="135.61" y2="69.33"/>
  <polyline class="cls-2" points="147.46 77.76 147.18 76.88 146.83 76 146.4 75.15 145.91 74.34 145.35 73.56 144.71 72.86 144.5 72.68"/>
  <polyline class="cls-2" points="141.85 70.74 141.68 70.6 140.79 70.21 139.91 69.86 138.99 69.64 138.04 69.47 137.12 69.36 136.17 69.36"/>
  <polyline class="cls-2" points="135.61 69.36 134.65 69.36 133.74 69.47 132.78 69.64 131.86 69.86 130.98 70.21 130.1 70.6 129.89 70.74"/>
  <polyline class="cls-2" points="127.24 72.68 127.07 72.86 126.43 73.56 125.87 74.34 125.37 75.15 124.95 76 124.6 76.88 124.31 77.76"/>
  <polyline class="cls-2" points="138.99 90.69 138.99 98.67 132.64 98.67 132.64 90.69"/>
  <line class="cls-2" x1="132.64" y1="90.69" x2="138.99" y2="90.69"/>
  <line class="cls-2" x1="135.89" y1="117.48" x2="136.13" y2="117.48"/>
  <line class="cls-2" x1="135.89" y1="117.48" x2="135.61" y2="117.48"/>
  <polyline class="cls-2" points="136.17 117.48 137.12 117.48 138.04 117.38 138.99 117.2 139.91 116.99 140.79 116.64 141.68 116.25 141.85 116.14"/>
  <polyline class="cls-2" points="144.5 114.2 144.71 113.99 145.35 113.28 145.91 112.51 146.4 111.69 146.83 110.85 147.18 109.96 147.46 109.08"/>
  <polyline class="cls-2" points="124.31 109.08 124.6 109.96 124.95 110.85 125.37 111.69 125.87 112.51 126.43 113.28 127.07 113.99 127.24 114.2"/>
  <polyline class="cls-2" points="129.89 116.14 130.1 116.25 130.98 116.64 131.86 116.99 132.78 117.2 133.74 117.38 134.65 117.48 135.61 117.48"/>
  <line class="cls-2" x1="139.45" y1="117.48" x2="139.45" y2="117.1"/>
  <line class="cls-2" x1="132.04" y1="117.45" x2="132.04" y2="117.02"/>
  <polyline class="cls-4" points="130.35 138.98 130.35 135.28 131.94 135.28 132.46 135.45 132.64 135.63 132.82 135.98 132.82 136.34 132.64 136.69 132.46 136.87 131.94 137.04 130.35 137.04"/>
  <line class="cls-4" x1="131.58" y1="137.04" x2="132.82" y2="138.98"/>
  <polyline class="cls-4" points="136.52 135.81 136.17 135.45 135.64 135.28 134.93 135.28 134.41 135.45 134.05 135.81 134.05 136.16 134.23 136.51 134.41 136.69 134.76 136.87 135.82 137.22 136.17 137.4 136.35 137.57 136.52 137.93 136.52 138.46 136.17 138.81 135.64 138.98 134.93 138.98 134.41 138.81 134.05 138.46"/>
  <polyline class="cls-4" points="137.58 135.28 138.99 138.98 140.4 135.28"/>
  <line class="cls-3" x1="141.5" y1="83.45" x2="152.12" y2="83.45"/>
  <line class="cls-3" x1="146.79" y1="88.74" x2="146.79" y2="78.12"/>
  <line class="cls-1" x1="132.61" y1="85.46" x2="131.97" y2="85.57"/>
  <line class="cls-1" x1="132.61" y1="85.46" x2="132.64" y2="77.73"/>
  <line class="cls-1" x1="121.17" y1="77.69" x2="132.64" y2="77.73"/>
  <line class="cls-1" x1="121.17" y1="77.69" x2="121.17" y2="85.5"/>
  <polyline class="cls-1" points="121.17 77.69 132.64 77.73 132.68 66.26"/>
  <polyline class="cls-1" points="132.68 66.29 131.76 66.33 130.88 66.43 129.99 66.61 129.15 66.86 128.3 67.14 127.49 67.53 126.68 67.95 125.94 68.44 125.23 69.01 124.6 69.61 123.96 70.28 123.4 70.99 122.9 71.73 122.48 72.5 122.09 73.32 121.77 74.16 121.52 75.05 121.35 75.89 121.24 76.81 121.21 77.69"/>
  <polygon class="cls-1" points="132.64 77.73 132.68 66.26 139.13 66.29 139.1 77.73 132.64 77.73 132.64 77.73"/>
  <polyline class="cls-1" points="150.53 77.76 150.5 76.85 150.39 75.96 150.22 75.08 149.97 74.23 149.69 73.39 149.3 72.57 148.87 71.76 148.38 71.02 147.82 70.32 147.22 69.68 146.55 69.04 145.84 68.48 145.1 67.99 144.32 67.56 143.51 67.17 142.66 66.86 141.78 66.61 140.93 66.43 140.02 66.33 139.13 66.29"/>
  <line class="cls-1" x1="139.1" y1="77.73" x2="150.57" y2="77.76"/>
  <line class="cls-1" x1="139.03" y1="86.52" x2="139.03" y2="90.69"/>
  <line class="cls-1" x1="139.03" y1="90.69" x2="132.64" y2="90.69"/>
  <line class="cls-1" x1="132.64" y1="90.69" x2="132.68" y2="86.49"/>
  <polyline class="cls-1" points="132.68 86.49 132.71 85.96 132.82 85.39"/>
  <polyline class="cls-1" points="132.61 85.46 132.71 85.43 132.82 85.39"/>
  <line class="cls-1" x1="132.61" y1="85.46" x2="132.54" y2="109.15"/>
  <line class="cls-1" x1="132.54" y1="109.15" x2="139.03" y2="109.19"/>
  <line class="cls-1" x1="139.03" y1="109.19" x2="139.06" y2="97.22"/>
  <polyline class="cls-1" points="144.85 88.46 144.04 89.35 143.26 90.3 142.52 91.36 141.82 92.45 140.4 94.78 139.06 97.22"/>
  <line class="cls-1" x1="144.85" y1="88.46" x2="148.35" y2="84.97"/>
  <polyline class="cls-1" points="148.31 84.97 148.56 84.68 148.73 84.4 148.87 84.05 148.94 83.7 148.94 83.34 148.91 82.99 148.77 82.64 148.63 82.32 148.42 82 148.13 81.75 147.85 81.58 147.5 81.4 147.15 81.33 146.79 81.3"/>
  <line class="cls-1" x1="146.83" y1="81.26" x2="139.73" y2="81.26"/>
  <polyline class="cls-1" points="139.73 81.26 139.42 81.3 139.13 81.37 138.82 81.47 138.57 81.61"/>
  <line class="cls-1" x1="138.57" y1="81.61" x2="133.14" y2="85.21"/>
  <line class="cls-1" x1="133.14" y1="85.21" x2="138.85" y2="85.25"/>
  <polyline class="cls-1" points="138.85 85.25 138.96 85.89 139.03 86.52"/>
  <line class="cls-1" x1="132.61" y1="102.83" x2="132.64" y2="98.63"/>
  <line class="cls-1" x1="132.64" y1="98.63" x2="138.99" y2="98.67"/>
  <line class="cls-1" x1="138.99" y1="98.67" x2="138.99" y2="102.83"/>
  <polyline class="cls-1" points="138.99 102.83 138.92 103.47 138.78 104.14"/>
  <line class="cls-1" x1="138.78" y1="104.14" x2="132.78" y2="104.1"/>
  <polyline class="cls-1" points="132.78 104.1 132.68 103.47 132.61 102.83"/>
  <polygon class="cls-1" points="148.1 83.45 148.06 83.13 147.96 82.85 147.78 82.57 147.53 82.39 147.25 82.21 146.93 82.14 146.65 82.14 146.33 82.21 146.05 82.39 145.8 82.57 145.63 82.85 145.52 83.13 145.49 83.45 145.52 83.77 145.63 84.05 145.8 84.33 146.05 84.51 146.33 84.68 146.65 84.76 146.93 84.76 147.25 84.68 147.53 84.51 147.78 84.33 147.96 84.05 148.06 83.77 148.1 83.45 148.1 83.45"/>
  <line class="cls-1" x1="148.7" y1="84.51" x2="149.23" y2="84.51"/>
  <polyline class="cls-1" points="149.23 84.51 149.76 83.34 150.18 82.28 150.32 81.86 150.46 81.47 150.53 81.15 150.53 80.87"/>
  <line class="cls-1" x1="150.53" y1="80.87" x2="150.57" y2="77.76"/>
  <line class="cls-1" x1="139.1" y1="77.73" x2="150.57" y2="77.76"/>
  <line class="cls-1" x1="139.1" y1="77.73" x2="139.1" y2="81.37"/>
  <line class="cls-1" x1="139.73" y1="81.26" x2="139.1" y2="81.37"/>
  <line class="cls-1" x1="145.87" y1="81.26" x2="139.73" y2="81.26"/>
  <line class="cls-1" x1="146.83" y1="81.26" x2="145.87" y2="81.26"/>
  <polyline class="cls-1" points="146.26 87.44 146.79 86.63 147.43 85.89"/>
  <line class="cls-1" x1="144.85" y1="88.46" x2="147.43" y2="85.89"/>
  <polyline class="cls-1" points="144.85 88.46 144.04 89.35 143.26 90.3 142.52 91.36 141.82 92.45 140.4 94.78 139.06 97.22"/>
  <line class="cls-1" x1="146.97" y1="87.86" x2="139.06" y2="97.22"/>
  <line class="cls-1" x1="146.97" y1="87.86" x2="146.26" y2="87.44"/>
  <polygon class="cls-1" points="147.64 83.45 147.6 83.2 147.5 82.99 147.36 82.81 147.15 82.67 146.9 82.6 146.69 82.6 146.44 82.67 146.23 82.81 146.09 82.99 145.98 83.2 145.95 83.45 145.98 83.7 146.09 83.91 146.23 84.08 146.44 84.23 146.69 84.3 146.9 84.3 147.15 84.23 147.36 84.08 147.5 83.91 147.6 83.7 147.64 83.45 147.64 83.45"/>
  <polygon class="cls-1" points="148.06 83.45 148.03 83.13 147.92 82.85 147.75 82.6 147.5 82.39 147.25 82.25 146.93 82.18 146.65 82.18 146.33 82.25 146.09 82.39 145.84 82.6 145.66 82.85 145.56 83.13 145.52 83.45 145.56 83.77 145.66 84.05 145.84 84.3 146.09 84.51 146.33 84.65 146.65 84.72 146.93 84.72 147.25 84.65 147.5 84.51 147.75 84.3 147.92 84.05 148.03 83.77 148.06 83.45 148.06 83.45"/>
  <polygon class="cls-1" points="147.64 83.45 147.6 83.2 147.5 82.99 147.36 82.81 147.15 82.67 146.9 82.6 146.69 82.6 146.44 82.67 146.23 82.81 146.09 82.99 145.98 83.2 145.95 83.45 145.98 83.7 146.09 83.91 146.23 84.08 146.44 84.23 146.69 84.3 146.9 84.3 147.15 84.23 147.36 84.08 147.5 83.91 147.6 83.7 147.64 83.45 147.64 83.45"/>
  <polygon class="cls-1" points="138.57 92.91 138.61 88.85 133.06 88.85 133.06 92.91 138.57 92.91 138.57 92.91"/>
  <line class="cls-1" x1="133.14" y1="85.21" x2="133.14" y2="85.21"/>
  <line class="cls-1" x1="138.61" y1="85.21" x2="138.61" y2="88.85"/>
  <line class="cls-1" x1="138.61" y1="85.21" x2="133.14" y2="85.21"/>
  <line class="cls-1" x1="133.14" y1="85.21" x2="133.1" y2="85.25"/>
  <line class="cls-1" x1="133.06" y1="88.85" x2="133.1" y2="85.25"/>
  <line class="cls-1" x1="133.06" y1="88.85" x2="138.61" y2="88.85"/>
  <line class="cls-1" x1="138.85" y1="85.25" x2="138.61" y2="85.21"/>
  <line class="cls-1" x1="138.61" y1="85.21" x2="138.61" y2="88.85"/>
  <polyline class="cls-1" points="139.03 89.24 138.99 89.1 138.92 88.99 138.78 88.92 138.61 88.89"/>
  <line class="cls-1" x1="139.03" y1="89.24" x2="139.03" y2="86.52"/>
  <polyline class="cls-1" points="138.85 85.25 138.96 85.89 139.03 86.52"/>
  <polyline class="cls-1" points="139.03 89.24 138.99 89.1 138.92 88.99 138.78 88.92 138.61 88.89"/>
  <line class="cls-1" x1="138.57" y1="92.91" x2="138.61" y2="88.85"/>
  <line class="cls-1" x1="138.57" y1="92.91" x2="138.99" y2="92.91"/>
  <line class="cls-1" x1="139.03" y1="89.24" x2="138.99" y2="92.91"/>
  <line class="cls-1" x1="133.1" y1="85.25" x2="132.82" y2="85.39"/>
  <polyline class="cls-1" points="132.68 86.49 132.71 85.96 132.82 85.39"/>
  <line class="cls-1" x1="132.68" y1="86.49" x2="132.64" y2="89.2"/>
  <polyline class="cls-1" points="133.06 88.85 132.89 88.89 132.78 88.96 132.68 89.06 132.64 89.2"/>
  <line class="cls-1" x1="133.06" y1="88.85" x2="133.1" y2="85.25"/>
  <polyline class="cls-1" points="133.06 88.85 132.89 88.89 132.78 88.96 132.68 89.06 132.64 89.2"/>
  <line class="cls-1" x1="132.64" y1="92.91" x2="132.64" y2="89.2"/>
  <line class="cls-1" x1="132.64" y1="92.91" x2="133.06" y2="92.91"/>
  <line class="cls-1" x1="133.06" y1="88.85" x2="133.06" y2="92.91"/>
  <polygon class="cls-1" points="138.57 100.5 138.57 104.14 133.03 104.1 133.06 100.47 138.57 100.5 138.57 100.5"/>
  <polygon class="cls-1" points="138.57 100.5 138.57 96.44 133.06 96.41 133.06 100.47 138.57 100.5 138.57 100.5"/>
  <line class="cls-1" x1="132.64" y1="96.41" x2="133.06" y2="96.41"/>
  <line class="cls-1" x1="132.64" y1="100.11" x2="132.64" y2="96.41"/>
  <polyline class="cls-1" points="132.64 100.11 132.68 100.25 132.75 100.36 132.89 100.43 133.06 100.47"/>
  <line class="cls-1" x1="133.06" y1="96.41" x2="133.06" y2="100.47"/>
  <line class="cls-1" x1="132.78" y1="104.1" x2="133.03" y2="104.1"/>
  <line class="cls-1" x1="133.03" y1="104.1" x2="133.06" y2="100.47"/>
  <polyline class="cls-1" points="132.64 100.11 132.68 100.25 132.75 100.36 132.89 100.43 133.06 100.47"/>
  <line class="cls-1" x1="132.64" y1="100.11" x2="132.61" y2="102.83"/>
  <polyline class="cls-1" points="132.78 104.1 132.68 103.47 132.61 102.83"/>
  <line class="cls-1" x1="138.57" y1="104.14" x2="138.78" y2="104.14"/>
  <polyline class="cls-1" points="138.99 102.83 138.92 103.47 138.78 104.14"/>
  <line class="cls-1" x1="138.99" y1="102.83" x2="138.99" y2="100.15"/>
  <polyline class="cls-1" points="138.57 100.5 138.75 100.47 138.85 100.4 138.96 100.29 138.99 100.15"/>
  <line class="cls-1" x1="138.57" y1="100.5" x2="138.57" y2="104.14"/>
  <line class="cls-1" x1="138.57" y1="96.44" x2="138.99" y2="96.44"/>
  <line class="cls-1" x1="138.57" y1="100.5" x2="138.57" y2="96.44"/>
  <polyline class="cls-1" points="138.57 100.5 138.75 100.47 138.85 100.4 138.96 100.29 138.99 100.15"/>
  <line class="cls-1" x1="138.99" y1="96.44" x2="138.99" y2="100.15"/>
  <line class="cls-1" x1="138.99" y1="92.91" x2="138.99" y2="96.44"/>
  <line class="cls-1" x1="132.64" y1="92.91" x2="132.64" y2="96.41"/>
  <line class="cls-1" x1="133.06" y1="92.91" x2="133.06" y2="96.41"/>
  <line class="cls-1" x1="138.57" y1="92.91" x2="138.57" y2="96.44"/>
  <line class="cls-2" x1="139.45" y1="117.48" x2="139.45" y2="117.48"/>
  <line class="cls-2" x1="139.45" y1="120.63" x2="139.45" y2="120.63"/>
  <line class="cls-2" x1="132.04" y1="117.45" x2="132.04" y2="117.45"/>
  <line class="cls-2" x1="132.04" y1="120.63" x2="132.04" y2="120.63"/>
  <line class="cls-2" x1="121.14" y1="95.56" x2="121.14" y2="94.5"/>
  <line class="cls-2" x1="124.21" y1="94.5" x2="124.21" y2="95.56"/>
  <polyline class="cls-2" points="124.21 94.5 124.21 95.56 121.14 95.56 121.14 94.5"/>
  <line class="cls-2" x1="121.14" y1="94.5" x2="124.21" y2="94.5"/>
  <line class="cls-2" x1="134.16" y1="117.45" x2="137.33" y2="117.45"/>
  <polyline class="cls-2" points="139.45 117.45 139.45 120.63 132.04 120.63 132.04 117.45"/>
  <line class="cls-2" x1="134.16" y1="117.45" x2="134.16" y2="120.63"/>
  <line class="cls-2" x1="137.33" y1="117.45" x2="137.33" y2="120.63"/>
  <line class="cls-2" x1="121.17" y1="77.69" x2="121.17" y2="81.61"/>
  <line class="cls-2" x1="121.17" y1="85" x2="121.17" y2="91.75"/>
  <line class="cls-2" x1="121.17" y1="95.1" x2="121.17" y2="101.84"/>
  <polyline class="cls-2" points="121.17 105.2 121.17 105.23 121.17 109.12"/>
  <line class="cls-2" x1="138.99" y1="117.48" x2="139.13" y2="117.48"/>
  <line class="cls-2" x1="124.24" y1="77.69" x2="124.24" y2="81.61"/>
  <line class="cls-2" x1="124.24" y1="85" x2="124.24" y2="91.71"/>
  <line class="cls-2" x1="124.24" y1="95.1" x2="124.24" y2="101.84"/>
  <polyline class="cls-2" points="124.24 105.2 124.24 105.23 124.24 109.12"/>
  <line class="cls-2" x1="147.46" y1="77.76" x2="147.46" y2="84.51"/>
  <line class="cls-2" x1="147.46" y1="88.14" x2="147.46" y2="91.92"/>
  <line class="cls-2" x1="147.46" y1="95.31" x2="147.46" y2="102.06"/>
  <polyline class="cls-2" points="147.46 105.41 147.46 105.44 147.46 109.19"/>
  <line class="cls-2" x1="148.7" y1="84.51" x2="147.46" y2="84.51"/>
  <line class="cls-2" x1="143.09" y1="85.6" x2="143.12" y2="85.57"/>
  <line class="cls-2" x1="147.75" y1="85.57" x2="146.02" y2="87.3"/>
  <line class="cls-2" x1="146.02" y1="87.3" x2="143.09" y2="85.6"/>
  <polyline class="cls-2" points="147.5 85.57 148.06 85.5 148.56 85.25 148.98 84.93 149.23 84.51"/>
  <polyline class="cls-2" points="142.8 85.57 144.18 84.08 145.38 82.71 145.95 82.07 146.44 81.54 146.83 81.08 147.15 80.73"/>
  <polyline class="cls-2" points="147.15 80.73 147.36 80.48 147.43 80.41"/>
  <line class="cls-2" x1="147.43" y1="80.41" x2="150.53" y2="80.41"/>
  <polyline class="cls-1" points="77.91 90.62 77.66 90.51 77.38 90.47 77.09 90.51 76.85 90.62 76.64 90.76 76.46 90.97 76.35 91.22 76.32 91.5"/>
  <polyline class="cls-1" points="79.49 93.33 79.46 92.91 79.39 92.52 79.25 92.13 79.07 91.75 78.82 91.43 78.58 91.11 78.26 90.83 77.91 90.62"/>
  <line class="cls-1" x1="76.39" y1="84.93" x2="76.39" y2="84.93"/>
  <line class="cls-1" x1="81.08" y1="92.49" x2="81.08" y2="95.95"/>
  <line class="cls-1" x1="80.66" y1="92.49" x2="80.66" y2="95.95"/>
  <polyline class="cls-1" points="76.32 97.71 76.35 97.99 76.46 98.21 76.64 98.45 76.85 98.6 77.09 98.7 77.38 98.74 77.66 98.7 77.91 98.6"/>
  <polyline class="cls-1" points="77.91 98.63 78.26 98.42 78.58 98.14 78.82 97.82 79.07 97.47 79.25 97.11 79.39 96.72 79.46 96.34 79.49 95.91"/>
  <line class="cls-1" x1="79.49" y1="95.91" x2="79.49" y2="93.33"/>
  <polyline class="cls-1" points="4.08 90.62 3.73 90.83 3.41 91.11 3.16 91.43 2.92 91.75 2.74 92.13 2.6 92.52 2.53 92.91 2.49 93.33"/>
  <polyline class="cls-1" points="5.6 91.11 5.49 90.93 5.35 90.76 5.17 90.62 4.96 90.55 4.75 90.47 4.5 90.47 4.29 90.51 4.08 90.62"/>
  <line class="cls-1" x1="5.67" y1="84.9" x2="5.67" y2="84.9"/>
  <line class="cls-1" x1="5.6" y1="91.11" x2="5.67" y2="91.11"/>
  <line class="cls-1" x1=".9" y1="95.95" x2=".9" y2="92.49"/>
  <line class="cls-1" x1="1.33" y1="95.95" x2="1.33" y2="92.49"/>
  <line class="cls-1" x1=".9" y1="95.95" x2=".9" y2="96.76"/>
  <line class="cls-1" x1="1.33" y1="95.95" x2="1.33" y2="96.76"/>
  <line class="cls-1" x1="5.6" y1="98.1" x2="5.67" y2="98.1"/>
  <line class="cls-1" x1="5.67" y1="108.52" x2="5.67" y2="104.39"/>
  <line class="cls-2" x1="8.77" y1="108.52" x2="8.77" y2="104.39"/>
  <line class="cls-1" x1="5.67" y1="98.1" x2="5.67" y2="91.11"/>
  <line class="cls-1" x1="5.67" y1="109.43" x2="5.67" y2="108.52"/>
  <line class="cls-1" x1="5.67" y1="82.07" x2="5.67" y2="81.86"/>
  <line class="cls-1" x1="5.67" y1="84.9" x2="5.67" y2="82.07"/>
  <line class="cls-1" x1="2.49" y1="95.91" x2="2.49" y2="93.33"/>
  <polyline class="cls-1" points="2.49 95.91 2.53 96.34 2.6 96.72 2.74 97.11 2.92 97.47 3.16 97.82 3.41 98.14 3.73 98.42 4.08 98.63"/>
  <polyline class="cls-1" points="4.08 98.6 4.29 98.7 4.5 98.74 4.75 98.74 4.96 98.67 5.17 98.6 5.35 98.45 5.49 98.28 5.6 98.1"/>
  <line class="cls-1" x1="81.08" y1="95.95" x2="81.08" y2="96.76"/>
  <line class="cls-1" x1="80.66" y1="95.95" x2="80.66" y2="96.76"/>
  <line class="cls-1" x1="76.39" y1="84.93" x2="76.39" y2="84.9"/>
  <polyline class="cls-1" points="76.32 84.19 76.35 84.54 76.39 84.9"/>
  <line class="cls-1" x1="75.9" y1="84.19" x2="75.97" y2="84.97"/>
  <line class="cls-1" x1="76.32" y1="82.07" x2="76.32" y2="84.19"/>
  <line class="cls-1" x1="76.32" y1="81.86" x2="76.32" y2="82.07"/>
  <line class="cls-1" x1="76.32" y1="108.52" x2="76.32" y2="109.43"/>
  <line class="cls-1" x1="76.32" y1="97.71" x2="76.32" y2="91.5"/>
  <line class="cls-1" x1="76.32" y1="108.52" x2="76.32" y2="105.23"/>
  <line class="cls-2" x1="73.25" y1="108.52" x2="73.25" y2="105.23"/>
  <polyline class="cls-1" points="78.82 100.78 79.32 100.43 79.78 100.01 80.17 99.55 80.48 99.05 80.77 98.52 80.94 97.92 81.05 97.36 81.08 96.76"/>
  <polyline class="cls-1" points="78.61 100.4 79.07 100.08 79.46 99.72 79.81 99.3 80.13 98.84 80.34 98.35 80.52 97.82 80.62 97.29 80.66 96.76"/>
  <polyline class="cls-1" points="78.82 100.78 78.29 101.17 77.8 101.6 77.34 102.13 76.99 102.69 76.71 103.29 76.5 103.93 76.35 104.56 76.32 105.23"/>
  <polyline class="cls-1" points="78.61 100.4 78.01 100.82 77.48 101.31 77.02 101.88 76.6 102.48 76.32 103.11 76.07 103.82 75.93 104.53 75.9 105.23"/>
  <polyline class="cls-1" points="78.82 88.46 79.32 88.82 79.78 89.2 80.17 89.66 80.48 90.19 80.77 90.72 80.94 91.29 81.05 91.89 81.08 92.49"/>
  <polyline class="cls-1" points="78.61 88.82 79.07 89.13 79.46 89.52 79.81 89.95 80.13 90.4 80.34 90.9 80.52 91.39 80.62 91.96 80.66 92.49"/>
  <line class="cls-2" x1="75.26" y1="4.96" x2="75.26" y2="5.39"/>
  <line class="cls-2" x1="74.84" y1="3.23" x2="75.26" y2="3.23"/>
  <line class="cls-2" x1="74.84" y1="4.96" x2="75.26" y2="4.96"/>
  <line class="cls-2" x1="75.26" y1="2.81" x2="76.32" y2="2.81"/>
  <line class="cls-2" x1="75.26" y1="5.39" x2="76.32" y2="5.39"/>
  <line class="cls-2" x1="76.32" y1="2.81" x2="76.32" y2="5.39"/>
  <line class="cls-2" x1="11.21" y1="3.23" x2="7.15" y2="3.23"/>
  <line class="cls-2" x1="7.15" y1="3.23" x2="6.73" y2="3.23"/>
  <line class="cls-2" x1="11.21" y1="4.96" x2="7.15" y2="4.96"/>
  <line class="cls-2" x1="6.73" y1="5.42" x2="5.67" y2="5.42"/>
  <line class="cls-2" x1="6.73" y1="2.78" x2="5.67" y2="2.78"/>
  <line class="cls-2" x1="40.46" y1="26.71" x2="41.52" y2="26.71"/>
  <polyline class="cls-2" points="41.52 26.71 41.52 29.78 40.46 29.78 40.46 26.71"/>
  <line class="cls-2" x1="40.46" y1="26.71" x2="41.52" y2="26.71"/>
  <line class="cls-2" x1="7.15" y1="4.96" x2="6.73" y2="4.96"/>
  <line class="cls-3" x1="16.5" y1="4.12" x2=".38" y2="4.12"/>
  <line class="cls-3" x1="4.08" y1="6.59" x2="4.08" y2="23.57"/>
  <line class="cls-1" x1="1.33" y1="11.88" x2="5.67" y2="11.88"/>
  <line class="cls-1" x1="1.33" y1="18.27" x2="5.67" y2="18.27"/>
  <line class="cls-1" x1="5.67" y1="1.93" x2="5.67" y2="5.42"/>
  <line class="cls-1" x1="76.32" y1="1.93" x2="76.32" y2="5.39"/>
  <line class="cls-1" x1="79.39" y1="11.88" x2="76.32" y2="11.88"/>
  <line class="cls-1" x1="76.32" y1="18.27" x2="79.49" y2="18.27"/>
  <line class="cls-1" x1="76.32" y1="11.88" x2="76.32" y2="18.27"/>
  <line class="cls-1" x1="5.67" y1="11.88" x2="5.67" y2="18.27"/>
  <line class="cls-3" x1="77.8" y1="6.59" x2="77.94" y2="23.57"/>
  <line class="cls-3" x1="65.48" y1="4.12" x2="81.61" y2="4.12"/>
  <polyline class="cls-1" points="17.14 .41 16.22 .45 15.34 .55 14.46 .73 13.61 .98 12.76 1.29 11.95 1.68 11.14 2.1 10.4 2.6 9.69 3.16 9.02 3.76 8.42 4.44 7.86 5.14 7.36 5.92 6.94 6.69 6.55 7.51 6.23 8.35 6.02 9.24 5.84 10.12 5.74 11 5.7 11.88"/>
  <polyline class="cls-2" points="17.14 3.48 16.33 3.52 15.51 3.66 14.7 3.83 13.93 4.12 13.19 4.47 12.48 4.89"/>
  <polyline class="cls-2" points="10.15 7.26 9.76 7.93 9.41 8.67 9.13 9.45 8.92 10.26 8.81 11.07 8.77 11.88"/>
  <polyline class="cls-2" points="8.77 18.27 8.81 19.09 8.92 19.9 9.13 20.71 9.41 21.49 9.76 22.23 10.15 22.94"/>
  <polyline class="cls-2" points="12.48 25.3 13.19 25.69 13.93 26.04 14.7 26.32 15.51 26.5 16.33 26.64 17.14 26.68"/>
  <polyline class="cls-2" points="73.21 11.88 73.18 11.07 73.07 10.26 72.86 9.45 72.58 8.67 72.23 7.93 71.8 7.26"/>
  <polyline class="cls-2" points="69.47 4.89 68.8 4.47 68.06 4.12 67.28 3.83 66.47 3.66 65.66 3.52 64.85 3.48"/>
  <polyline class="cls-2" points="64.85 26.68 65.66 26.64 66.47 26.5 67.28 26.32 68.06 26.04 68.8 25.69 69.47 25.3"/>
  <polyline class="cls-2" points="71.8 22.94 72.23 22.23 72.58 21.49 72.86 20.71 73.07 19.9 73.18 19.09 73.21 18.27"/>
  <line class="cls-2" x1="8.77" y1="11.85" x2="8.77" y2="18.31"/>
  <line class="cls-2" x1="17.14" y1="3.45" x2="24.16" y2="3.45"/>
  <line class="cls-2" x1="27.51" y1="3.45" x2="34.25" y2="3.45"/>
  <line class="cls-2" x1="37.61" y1="3.45" x2="44.35" y2="3.45"/>
  <line class="cls-2" x1="47.73" y1="3.45" x2="54.44" y2="3.45"/>
  <line class="cls-2" x1="57.79" y1="3.45" x2="64.85" y2="3.45"/>
  <line class="cls-2" x1="73.25" y1="11.85" x2="73.25" y2="18.27"/>
  <line class="cls-2" x1="64.85" y1="26.71" x2="57.79" y2="26.71"/>
  <line class="cls-2" x1="54.44" y1="26.71" x2="47.7" y2="26.71"/>
  <line class="cls-2" x1="44.35" y1="26.71" x2="37.61" y2="26.71"/>
  <line class="cls-2" x1="34.22" y1="26.71" x2="27.51" y2="26.71"/>
  <line class="cls-2" x1="24.16" y1="26.71" x2="17.1" y2="26.71"/>
  <line class="cls-1" x1="41.52" y1="29.78" x2="40.46" y2="29.78"/>
  <polyline class="cls-1" points="76.28 11.88 76.25 11 76.14 10.12 75.97 9.24 75.75 8.35 75.44 7.51 75.05 6.69 74.62 5.92 74.13 5.14 73.57 4.44 72.97 3.76 72.3 3.16 71.59 2.6 70.85 2.1 70.04 1.68 69.23 1.29 68.38 .98 67.53 .73 66.65 .55 65.77 .45 64.85 .41"/>
  <polyline class="cls-2" points="70.88 7.82 70.35 7.15 69.75 6.55 69.08 5.95 68.41 5.42 68.34 5.39"/>
  <polyline class="cls-2" points="65.34 3.94 65.31 3.91 64.46 3.66 63.61 3.52 62.77 3.41 61.89 3.38"/>
  <line class="cls-2" x1="70.92" y1="7.82" x2="74.2" y2="7.82"/>
  <line class="cls-2" x1="74.2" y1="7.82" x2="74.2" y2="4.61"/>
  <polyline class="cls-2" points="73.14 3.91 73.64 4.33 74.2 4.61"/>
  <polyline class="cls-2" points="73.11 3.94 72.47 3.31 71.73 2.71 70.99 2.21 70.18 1.72 69.33 1.33 68.48 1.01 67.6 .73 66.68 .55 65.77 .45 64.85 .41"/>
  <line class="cls-2" x1="64.85" y1=".38" x2="57.79" y2=".38"/>
  <line class="cls-2" x1="54.44" y1=".38" x2="47.7" y2=".38"/>
  <line class="cls-2" x1="44.35" y1=".38" x2="37.61" y2=".38"/>
  <line class="cls-2" x1="34.22" y1=".38" x2="27.51" y2=".38"/>
  <line class="cls-2" x1="24.16" y1=".38" x2="17.1" y2=".38"/>
  <polyline class="cls-2" points="17.14 .41 16.22 .45 15.3 .55 14.39 .73 13.5 1.01 12.66 1.33 11.81 1.72 11 2.21 10.26 2.71 9.52 3.31 8.88 3.94"/>
  <polyline class="cls-2" points="7.79 4.61 8.39 4.33 8.84 3.91"/>
  <line class="cls-2" x1="7.79" y1="4.61" x2="7.79" y2="7.82"/>
  <line class="cls-2" x1="7.79" y1="7.82" x2="11.07" y2="7.82"/>
  <polyline class="cls-2" points="20.1 3.38 19.22 3.41 18.37 3.52 17.53 3.66 16.68 3.91 16.61 3.94"/>
  <polyline class="cls-2" points="13.61 5.39 13.57 5.42 12.9 5.95 12.23 6.55 11.63 7.15 11.1 7.82"/>
  <line class="cls-2" x1="20.1" y1="3.34" x2="24.12" y2="3.34"/>
  <line class="cls-2" x1="27.51" y1="3.34" x2="34.25" y2="3.34"/>
  <line class="cls-2" x1="37.61" y1="3.34" x2="44.35" y2="3.34"/>
  <line class="cls-2" x1="47.7" y1="3.34" x2="54.44" y2="3.34"/>
  <line class="cls-2" x1="57.83" y1="3.34" x2="61.89" y2="3.34"/>
  <line class="cls-2" x1="61.89" y1=".38" x2="61.89" y2="3.34"/>
  <line class="cls-2" x1="20.1" y1=".38" x2="20.1" y2="3.34"/>
  <line class="cls-2" x1="11.03" y1="3.31" x2="11.03" y2="7.82"/>
  <line class="cls-2" x1="11.17" y1="7.72" x2="7.79" y2="7.72"/>
  <line class="cls-2" x1="74.2" y1="7.72" x2="70.85" y2="7.72"/>
  <line class="cls-2" x1="74.2" y1="4.61" x2="74.2" y2="7.82"/>
  <line class="cls-2" x1="7.79" y1="7.82" x2="7.79" y2="4.61"/>
  <line class="cls-2" x1="11.03" y1="3.31" x2="9.48" y2="3.31"/>
  <line class="cls-2" x1="70.99" y1="3.31" x2="70.99" y2="7.82"/>
  <line class="cls-2" x1="70.99" y1="3.31" x2="72.54" y2="3.31"/>
  <line class="cls-2" x1="30.62" y1="24.88" x2="34.25" y2="24.88"/>
  <line class="cls-2" x1="37.64" y1="24.88" x2="44.35" y2="24.88"/>
  <line class="cls-2" x1="47.73" y1="24.88" x2="51.4" y2="24.88"/>
  <line class="cls-2" x1="51.4" y1="24.88" x2="51.4" y2="28.83"/>
  <line class="cls-2" x1="51.4" y1="28.83" x2="47.73" y2="28.83"/>
  <line class="cls-2" x1="44.35" y1="28.83" x2="37.64" y2="28.83"/>
  <line class="cls-2" x1="34.25" y1="28.83" x2="30.58" y2="28.83"/>
  <line class="cls-2" x1="30.62" y1="28.83" x2="30.62" y2="24.88"/>
  <line class="cls-2" x1="51.62" y1="25.72" x2="51.62" y2="23.89"/>
  <line class="cls-2" x1="51.62" y1="23.89" x2="47.73" y2="23.89"/>
  <line class="cls-2" x1="44.35" y1="23.89" x2="37.64" y2="23.89"/>
  <line class="cls-2" x1="34.25" y1="23.89" x2="30.41" y2="23.89"/>
  <line class="cls-2" x1="30.41" y1="23.89" x2="30.41" y2="25.72"/>
  <line class="cls-2" x1="30.41" y1="25.72" x2="34.25" y2="25.72"/>
  <line class="cls-2" x1="37.64" y1="25.72" x2="44.35" y2="25.72"/>
  <line class="cls-2" x1="47.73" y1="25.72" x2="51.62" y2="25.72"/>
  <line class="cls-2" x1="30.41" y1="25.72" x2="34.25" y2="25.72"/>
  <line class="cls-2" x1="37.64" y1="25.72" x2="44.35" y2="25.72"/>
  <line class="cls-2" x1="47.73" y1="25.72" x2="51.62" y2="25.72"/>
  <line class="cls-2" x1="51.62" y1="25.72" x2="51.62" y2="27.24"/>
  <line class="cls-2" x1="51.62" y1="27.24" x2="47.73" y2="27.24"/>
  <line class="cls-2" x1="44.35" y1="27.24" x2="37.64" y2="27.24"/>
  <line class="cls-2" x1="34.25" y1="27.24" x2="30.41" y2="27.24"/>
  <line class="cls-2" x1="30.41" y1="27.24" x2="30.41" y2="25.72"/>
  <line class="cls-2" x1="30.41" y1="27.24" x2="34.25" y2="27.24"/>
  <line class="cls-2" x1="37.64" y1="27.24" x2="44.35" y2="27.24"/>
  <polygon class="cls-2" points="47.73 27.24 51.62 27.24 47.73 27.24 47.73 27.24"/>
  <line class="cls-2" x1="44.35" y1="27.24" x2="37.64" y2="27.24"/>
  <line class="cls-2" x1="34.25" y1="27.24" x2="30.41" y2="27.24"/>
  <line class="cls-2" x1="30.41" y1="25.02" x2="34.25" y2="25.02"/>
  <line class="cls-2" x1="37.64" y1="25.02" x2="44.35" y2="25.02"/>
  <line class="cls-2" x1="47.73" y1="25.02" x2="51.62" y2="25.02"/>
  <line class="cls-2" x1="51.62" y1="25.02" x2="51.62" y2="29.04"/>
  <line class="cls-2" x1="51.62" y1="29.04" x2="47.73" y2="29.04"/>
  <line class="cls-2" x1="44.35" y1="29.04" x2="37.64" y2="29.04"/>
  <line class="cls-2" x1="34.25" y1="29.04" x2="30.41" y2="29.04"/>
  <line class="cls-2" x1="30.41" y1="29.04" x2="30.41" y2="25.02"/>
  <line class="cls-2" x1="30.62" y1="24.07" x2="34.25" y2="24.07"/>
  <line class="cls-2" x1="37.64" y1="24.07" x2="44.35" y2="24.07"/>
  <line class="cls-2" x1="47.73" y1="24.07" x2="51.4" y2="24.07"/>
  <line class="cls-2" x1="51.4" y1="24.07" x2="51.4" y2="27.67"/>
  <line class="cls-2" x1="51.4" y1="27.67" x2="47.73" y2="27.67"/>
  <line class="cls-2" x1="44.35" y1="27.67" x2="37.64" y2="27.67"/>
  <line class="cls-2" x1="34.25" y1="27.67" x2="30.62" y2="27.67"/>
  <line class="cls-2" x1="30.62" y1="27.67" x2="30.62" y2="24.07"/>
  <line class="cls-2" x1="51.4" y1="24.88" x2="51.4" y2="24.07"/>
  <line class="cls-2" x1="51.4" y1="24.07" x2="47.73" y2="24.07"/>
  <line class="cls-2" x1="44.35" y1="24.07" x2="37.64" y2="24.07"/>
  <line class="cls-2" x1="34.25" y1="24.07" x2="30.62" y2="24.07"/>
  <line class="cls-2" x1="30.62" y1="24.07" x2="30.62" y2="24.88"/>
  <line class="cls-2" x1="30.62" y1="24.88" x2="34.25" y2="24.88"/>
  <line class="cls-2" x1="37.64" y1="24.88" x2="44.35" y2="24.88"/>
  <line class="cls-2" x1="47.73" y1="24.88" x2="51.4" y2="24.88"/>
  <line class="cls-2" x1="51.62" y1="23.89" x2="51.62" y2="25.02"/>
  <line class="cls-2" x1="51.62" y1="25.02" x2="47.73" y2="25.02"/>
  <line class="cls-2" x1="44.35" y1="25.02" x2="37.64" y2="25.02"/>
  <line class="cls-2" x1="34.25" y1="25.02" x2="30.41" y2="25.02"/>
  <line class="cls-2" x1="30.41" y1="25.02" x2="30.41" y2="23.89"/>
  <line class="cls-2" x1="30.41" y1="23.89" x2="34.25" y2="23.89"/>
  <line class="cls-2" x1="37.64" y1="23.89" x2="44.35" y2="23.89"/>
  <line class="cls-2" x1="47.73" y1="23.89" x2="51.62" y2="23.89"/>
  <line class="cls-2" x1="51.62" y1="29.04" x2="47.73" y2="29.04"/>
  <line class="cls-2" x1="44.35" y1="29.04" x2="37.64" y2="29.04"/>
  <polygon class="cls-2" points="34.25 29.04 30.41 29.04 34.25 29.04 34.25 29.04"/>
  <line class="cls-2" x1="37.64" y1="29.04" x2="44.35" y2="29.04"/>
  <line class="cls-2" x1="47.73" y1="29.04" x2="51.62" y2="29.04"/>
  <line class="cls-2" x1="51.4" y1="28.83" x2="47.73" y2="28.83"/>
  <line class="cls-2" x1="44.35" y1="28.83" x2="37.64" y2="28.83"/>
  <polygon class="cls-2" points="34.25 28.83 30.62 28.83 34.25 28.83 34.25 28.83"/>
  <line class="cls-2" x1="37.64" y1="28.83" x2="44.35" y2="28.83"/>
  <line class="cls-2" x1="47.73" y1="28.83" x2="51.4" y2="28.83"/>
  <line class="cls-2" x1="30.62" y1="28.3" x2="34.25" y2="28.3"/>
  <line class="cls-2" x1="37.64" y1="28.3" x2="44.35" y2="28.3"/>
  <line class="cls-2" x1="47.73" y1="28.3" x2="51.4" y2="28.3"/>
  <line class="cls-2" x1="51.4" y1="28.3" x2="51.4" y2="28.83"/>
  <line class="cls-2" x1="51.4" y1="28.83" x2="47.73" y2="28.83"/>
  <line class="cls-2" x1="44.35" y1="28.83" x2="37.64" y2="28.83"/>
  <line class="cls-2" x1="34.25" y1="28.83" x2="30.62" y2="28.83"/>
  <line class="cls-2" x1="30.62" y1="28.83" x2="30.62" y2="28.3"/>
  <line class="cls-2" x1="30.62" y1="28.3" x2="34.25" y2="28.3"/>
  <line class="cls-2" x1="37.64" y1="28.3" x2="44.35" y2="28.3"/>
  <polygon class="cls-2" points="47.73 28.3 51.4 28.3 47.73 28.3 47.73 28.3"/>
  <line class="cls-2" x1="44.35" y1="28.3" x2="37.64" y2="28.3"/>
  <line class="cls-2" x1="34.25" y1="28.3" x2="30.62" y2="28.3"/>
  <line class="cls-2" x1="30.83" y1="28.83" x2="34.25" y2="28.83"/>
  <line class="cls-2" x1="37.64" y1="28.83" x2="44.35" y2="28.83"/>
  <polygon class="cls-2" points="47.73 28.83 51.19 28.83 47.73 28.83 47.73 28.83"/>
  <line class="cls-2" x1="44.35" y1="28.83" x2="37.64" y2="28.83"/>
  <line class="cls-2" x1="34.25" y1="28.83" x2="30.79" y2="28.83"/>
  <line class="cls-2" x1="51.62" y1="28.83" x2="47.73" y2="28.83"/>
  <line class="cls-2" x1="44.35" y1="28.83" x2="37.64" y2="28.83"/>
  <polygon class="cls-2" points="34.25 28.83 30.41 28.83 34.25 28.83 34.25 28.83"/>
  <line class="cls-2" x1="37.64" y1="28.83" x2="44.35" y2="28.83"/>
  <line class="cls-2" x1="47.73" y1="28.83" x2="51.62" y2="28.83"/>
  <line class="cls-2" x1="51.19" y1="28.51" x2="47.73" y2="28.51"/>
  <line class="cls-2" x1="44.35" y1="28.51" x2="37.64" y2="28.51"/>
  <line class="cls-2" x1="34.25" y1="28.51" x2="30.79" y2="28.51"/>
  <line class="cls-2" x1="30.83" y1="28.51" x2="30.83" y2="28.83"/>
  <line class="cls-2" x1="30.83" y1="28.83" x2="34.25" y2="28.83"/>
  <line class="cls-2" x1="37.64" y1="28.83" x2="44.35" y2="28.83"/>
  <line class="cls-2" x1="47.73" y1="28.83" x2="51.19" y2="28.83"/>
  <line class="cls-2" x1="51.19" y1="28.83" x2="51.19" y2="28.51"/>
  <line class="cls-2" x1="51.19" y1="28.41" x2="47.73" y2="28.41"/>
  <line class="cls-2" x1="44.35" y1="28.41" x2="37.64" y2="28.41"/>
  <line class="cls-2" x1="34.25" y1="28.41" x2="30.79" y2="28.41"/>
  <line class="cls-2" x1="30.83" y1="28.41" x2="34.25" y2="28.41"/>
  <line class="cls-2" x1="37.64" y1="28.41" x2="44.35" y2="28.41"/>
  <line class="cls-2" x1="47.73" y1="28.41" x2="51.19" y2="28.41"/>
  <line class="cls-2" x1="30.83" y1="28.83" x2="30.83" y2="28.41"/>
  <line class="cls-2" x1="30.83" y1="28.41" x2="34.25" y2="28.41"/>
  <line class="cls-2" x1="37.64" y1="28.41" x2="44.35" y2="28.41"/>
  <line class="cls-2" x1="47.73" y1="28.41" x2="51.19" y2="28.41"/>
  <line class="cls-2" x1="51.19" y1="28.41" x2="51.19" y2="28.83"/>
  <line class="cls-2" x1="51.19" y1="28.83" x2="47.73" y2="28.83"/>
  <line class="cls-2" x1="44.35" y1="28.83" x2="37.64" y2="28.83"/>
  <line class="cls-2" x1="34.25" y1="28.83" x2="30.79" y2="28.83"/>
  <line class="cls-2" x1="30.41" y1="27.07" x2="30.41" y2="28.83"/>
  <line class="cls-2" x1="30.41" y1="28.83" x2="34.25" y2="28.83"/>
  <line class="cls-2" x1="37.64" y1="28.83" x2="44.35" y2="28.83"/>
  <line class="cls-2" x1="47.73" y1="28.83" x2="51.62" y2="28.83"/>
  <line class="cls-2" x1="51.62" y1="28.83" x2="51.62" y2="27.07"/>
  <line class="cls-2" x1="51.62" y1="27.07" x2="47.73" y2="27.07"/>
  <line class="cls-2" x1="44.35" y1="27.07" x2="37.64" y2="27.07"/>
  <line class="cls-2" x1="34.25" y1="27.07" x2="30.41" y2="27.07"/>
  <line class="cls-2" x1="30.62" y1="28.8" x2="30.62" y2="28.73"/>
  <line class="cls-2" x1="30.62" y1="28.73" x2="34.25" y2="28.73"/>
  <line class="cls-2" x1="37.64" y1="28.73" x2="44.35" y2="28.73"/>
  <line class="cls-2" x1="47.73" y1="28.73" x2="51.4" y2="28.73"/>
  <line class="cls-2" x1="51.4" y1="28.73" x2="51.4" y2="28.8"/>
  <line class="cls-2" x1="51.4" y1="28.8" x2="47.73" y2="28.8"/>
  <line class="cls-2" x1="44.35" y1="28.8" x2="37.64" y2="28.8"/>
  <line class="cls-2" x1="34.25" y1="28.8" x2="30.62" y2="28.8"/>
  <line class="cls-2" x1="30.62" y1="28.73" x2="30.62" y2="28.23"/>
  <line class="cls-2" x1="30.62" y1="28.23" x2="34.25" y2="28.23"/>
  <line class="cls-2" x1="37.64" y1="28.23" x2="44.35" y2="28.23"/>
  <line class="cls-2" x1="47.73" y1="28.23" x2="51.4" y2="28.23"/>
  <line class="cls-2" x1="51.4" y1="28.23" x2="51.4" y2="28.73"/>
  <line class="cls-2" x1="51.4" y1="28.73" x2="47.73" y2="28.73"/>
  <line class="cls-2" x1="44.35" y1="28.73" x2="37.64" y2="28.73"/>
  <line class="cls-2" x1="34.25" y1="28.73" x2="30.62" y2="28.73"/>
  <line class="cls-2" x1="51.4" y1="27.88" x2="51.4" y2="28.23"/>
  <line class="cls-2" x1="51.4" y1="28.23" x2="47.73" y2="28.23"/>
  <line class="cls-2" x1="44.35" y1="28.23" x2="37.64" y2="28.23"/>
  <line class="cls-2" x1="34.25" y1="28.23" x2="30.62" y2="28.23"/>
  <line class="cls-2" x1="30.62" y1="28.23" x2="30.62" y2="27.88"/>
  <line class="cls-2" x1="30.62" y1="27.88" x2="34.25" y2="27.88"/>
  <line class="cls-2" x1="37.64" y1="27.88" x2="44.35" y2="27.88"/>
  <line class="cls-2" x1="47.73" y1="27.88" x2="51.4" y2="27.88"/>
  <line class="cls-2" x1="30.62" y1="27.67" x2="34.25" y2="27.67"/>
  <line class="cls-2" x1="37.64" y1="27.67" x2="44.35" y2="27.67"/>
  <line class="cls-2" x1="47.73" y1="27.67" x2="51.4" y2="27.67"/>
  <line class="cls-2" x1="51.4" y1="27.67" x2="51.4" y2="27.88"/>
  <line class="cls-2" x1="51.4" y1="27.88" x2="47.73" y2="27.88"/>
  <line class="cls-2" x1="44.35" y1="27.88" x2="37.64" y2="27.88"/>
  <line class="cls-2" x1="34.25" y1="27.88" x2="30.62" y2="27.88"/>
  <line class="cls-2" x1="30.62" y1="27.88" x2="30.62" y2="27.67"/>
  <polygon class="cls-2" points="51.62 28.83 51.62 27.07 51.62 28.83 51.62 28.83"/>
  <line class="cls-2" x1="51.19" y1="28.51" x2="51.19" y2="28.41"/>
  <line class="cls-2" x1="51.19" y1="28.41" x2="47.73" y2="28.41"/>
  <line class="cls-2" x1="44.35" y1="28.41" x2="37.64" y2="28.41"/>
  <line class="cls-2" x1="34.25" y1="28.41" x2="30.79" y2="28.41"/>
  <line class="cls-2" x1="30.83" y1="28.41" x2="30.83" y2="28.51"/>
  <line class="cls-2" x1="30.83" y1="28.51" x2="34.25" y2="28.51"/>
  <line class="cls-2" x1="37.64" y1="28.51" x2="44.35" y2="28.51"/>
  <line class="cls-2" x1="47.73" y1="28.51" x2="51.19" y2="28.51"/>
  <line class="cls-2" x1="51.62" y1="28.83" x2="47.73" y2="28.83"/>
  <line class="cls-2" x1="44.35" y1="28.83" x2="37.64" y2="28.83"/>
  <line class="cls-2" x1="34.25" y1="28.83" x2="30.41" y2="28.83"/>
  <line class="cls-2" x1="30.41" y1="28.83" x2="30.41" y2="27.07"/>
  <line class="cls-2" x1="30.41" y1="27.07" x2="34.25" y2="27.07"/>
  <line class="cls-2" x1="37.64" y1="27.07" x2="44.35" y2="27.07"/>
  <line class="cls-2" x1="47.73" y1="27.07" x2="51.62" y2="27.07"/>
  <line class="cls-2" x1="51.62" y1="27.07" x2="51.62" y2="28.83"/>
  <polyline class="cls-2" points="55.32 29.29 55.36 29.43 55.43 29.54 55.5 29.64 55.6 29.71 55.71 29.78 55.85 29.78"/>
  <line class="cls-2" x1="55.85" y1="29.78" x2="53.2" y2="29.78"/>
  <line class="cls-2" x1="53.2" y1="29.78" x2="47.73" y2="29.78"/>
  <line class="cls-2" x1="44.35" y1="29.78" x2="37.61" y2="29.78"/>
  <line class="cls-2" x1="34.25" y1="29.78" x2="28.78" y2="29.78"/>
  <line class="cls-2" x1="28.82" y1="29.78" x2="28.82" y2="29.29"/>
  <line class="cls-2" x1="28.82" y1="29.29" x2="34.25" y2="29.29"/>
  <line class="cls-2" x1="37.64" y1="29.29" x2="44.38" y2="29.29"/>
  <line class="cls-2" x1="47.73" y1="29.29" x2="53.2" y2="29.29"/>
  <line class="cls-2" x1="53.2" y1="29.29" x2="55.32" y2="29.29"/>
  <line class="cls-2" x1="26.67" y1="29.29" x2="34.22" y2="29.29"/>
  <line class="cls-2" x1="37.61" y1="29.29" x2="44.35" y2="29.29"/>
  <polyline class="cls-2" points="47.7 29.29 47.73 29.29 55.32 29.29"/>
  <line class="cls-2" x1="26.67" y1="29.29" x2="28.82" y2="29.29"/>
  <line class="cls-2" x1="26.14" y1="29.78" x2="28.82" y2="29.78"/>
  <polyline class="cls-2" points="26.14 29.78 26.28 29.78 26.38 29.71 26.49 29.64 26.56 29.54 26.63 29.43 26.67 29.29"/>
  <polyline class="cls-2" points="26.14 29.78 26.28 29.78 26.38 29.71 26.49 29.64 26.56 29.54 26.63 29.43 26.67 29.29"/>
  <polyline class="cls-2" points="55.32 29.29 55.36 29.43 55.43 29.54 55.5 29.64 55.6 29.71 55.71 29.78 55.85 29.78"/>
  <line class="cls-2" x1="53.2" y1="29.29" x2="53.2" y2="29.78"/>
  <line class="cls-3" x1="17.67" y1="15.06" x2="28.29" y2="15.06"/>
  <line class="cls-3" x1="22.96" y1="20.39" x2="22.96" y2="9.77"/>
  <line class="cls-3" x1="20.84" y1="15.06" x2="31.47" y2="15.06"/>
  <line class="cls-3" x1="26.14" y1="20.39" x2="26.14" y2="9.77"/>
  <line class="cls-3" x1="31.99" y1="15.06" x2="42.58" y2="15.06"/>
  <line class="cls-3" x1="37.29" y1="20.39" x2="37.29" y2="9.77"/>
  <line class="cls-3" x1="39.41" y1="15.06" x2="50.03" y2="15.06"/>
  <line class="cls-3" x1="44.7" y1="20.39" x2="44.7" y2="9.77"/>
  <line class="cls-3" x1="50.03" y1="15.06" x2="60.61" y2="15.06"/>
  <line class="cls-3" x1="55.32" y1="20.39" x2="55.32" y2="9.77"/>
  <line class="cls-3" x1="40.99" y1="21.38" x2="40.99" y2="35.08"/>
  <line class="cls-3" x1="127.35" y1="91.5" x2="144.29" y2="91.5"/>
  <line class="cls-3" x1="144.32" y1="93.33" x2="127.35" y2="93.33"/>
  <line class="cls-3" x1="127.31" y1="97.71" x2="144.29" y2="97.71"/>
  <line class="cls-3" x1="144.29" y1="95.91" x2="127.35" y2="95.91"/>
  <line class="cls-3" x1="35.7" y1="92.98" x2="46.29" y2="92.98"/>
  <line class="cls-3" x1="40.99" y1="98.28" x2="40.99" y2="87.65"/>
  <line class="cls-4" x1="40.53" y1="39.92" x2="40.53" y2="43.62"/>
  <line class="cls-4" x1="39.3" y1="39.92" x2="41.77" y2="39.92"/>
  <polyline class="cls-4" points="42.48 39.92 43.89 43.62 45.33 39.92"/>
  <polyline class="cls-1" points="138.99 120.63 139.91 120.59 140.79 120.48 141.68 120.31 142.52 120.06 143.37 119.78 144.18 119.39 144.99 118.97 145.73 118.47 146.44 117.91 147.07 117.31 147.71 116.64 148.27 115.93 148.77 115.19 149.19 114.41 149.58 113.6 149.9 112.75 150.14 111.87 150.32 111.02 150.43 110.1 150.46 109.22"/>
  <polyline class="cls-1" points="150.46 109.19 139.03 109.19 138.99 120.63"/>
  <polygon class="cls-1" points="139.03 109.19 138.99 120.63 132.5 120.63 132.54 109.15 139.03 109.19 139.03 109.19"/>
  <polyline class="cls-1" points="132.5 120.63 132.54 109.15 121.1 109.12"/>
  <polyline class="cls-1" points="121.1 109.12 121.14 110.03 121.24 110.92 121.42 111.8 121.67 112.65 121.95 113.49 122.34 114.31 122.76 115.12 123.25 115.86 123.82 116.57 124.42 117.2 125.09 117.84 125.79 118.4 126.54 118.9 127.31 119.32 128.12 119.71 128.97 120.03 129.85 120.27 130.7 120.45 131.62 120.56 132.5 120.59"/>
  <line class="cls-1" x1="121.1" y1="109.12" x2="132.54" y2="109.15"/>
  <line class="cls-1" x1="132.54" y1="109.15" x2="132.61" y2="85.46"/>
  <line class="cls-1" x1="131.97" y1="85.57" x2="132.61" y2="85.46"/>
  <line class="cls-1" x1="121.31" y1="85.53" x2="132.11" y2="85.57"/>
  <line class="cls-1" x1="121.17" y1="85.53" x2="121.1" y2="109.12"/>
  <polygon class="cls-1" points="146.97 87.86 139.06 97.22 139.03 109.19 150.46 109.19 150.53 89.91 146.97 87.86 146.97 87.86"/>
  <line class="cls-1" x1="133.14" y1="85.21" x2="138.57" y2="81.61"/>
  <polyline class="cls-1" points="139.1 81.37 138.82 81.47 138.57 81.61"/>
  <polyline class="cls-1" points="139.1 81.37 139.1 77.73 132.64 77.73 132.61 85.46"/>
  <polyline class="cls-1" points="132.61 85.46 132.89 85.36 133.14 85.21"/>
  <polyline class="cls-1" points="78.82 88.46 77.94 87.79 77.24 86.94 76.71 85.99 76.39 84.93"/>
  <polyline class="cls-1" points="78.61 88.82 78.12 88.5 77.66 88.11 77.24 87.65 76.88 87.19 76.57 86.66 76.32 86.13 76.11 85.57 75.97 85"/>
  <polyline class="cls-1" points="5.67 104.39 5.32 103.29 4.79 102.3 4.05 101.45 3.16 100.78"/>
  <polyline class="cls-1" points="6.02 104.28 5.88 103.71 5.7 103.15 5.46 102.58 5.14 102.06 4.75 101.6 4.36 101.14 3.9 100.75 3.41 100.4"/>
  <polyline class="cls-1" points="3.16 100.78 2.67 100.43 2.25 100.01 1.86 99.55 1.5 99.05 1.26 98.52 1.05 97.92 .94 97.36 .9 96.76"/>
  <polyline class="cls-1" points="3.41 100.4 2.95 100.08 2.53 99.72 2.17 99.3 1.89 98.84 1.65 98.35 1.47 97.82 1.36 97.29 1.33 96.76"/>
  <polyline class="cls-1" points="3.16 88.46 2.67 88.82 2.25 89.2 1.86 89.66 1.5 90.19 1.26 90.72 1.05 91.29 .94 91.89 .9 92.49"/>
  <polyline class="cls-1" points="3.41 88.82 2.95 89.13 2.53 89.52 2.17 89.95 1.89 90.4 1.65 90.9 1.47 91.39 1.36 91.96 1.33 92.49"/>
  <polyline class="cls-1" points="3.16 88.46 4.05 87.79 4.75 86.94 5.28 85.99 5.67 84.9"/>
  <polyline class="cls-1" points="3.41 88.82 3.9 88.5 4.33 88.11 4.75 87.65 5.1 87.19 5.42 86.66 5.67 86.13 6.06 85.04"/>
  <line class="cls-1" x1="64.85" y1="120.91" x2="17.14" y2="120.91"/>
  <line class="cls-2" x1="64.85" y1="117.8" x2="57.79" y2="117.8"/>
  <line class="cls-2" x1="54.44" y1="117.8" x2="47.7" y2="117.8"/>
  <line class="cls-2" x1="44.35" y1="117.8" x2="37.61" y2="117.8"/>
  <line class="cls-2" x1="34.22" y1="117.8" x2="27.51" y2="117.8"/>
  <line class="cls-2" x1="24.16" y1="117.8" x2="17.1" y2="117.8"/>
  <polyline class="cls-2" points="64.85 117.8 65.66 117.77 66.47 117.62 67.28 117.45 68.06 117.17 68.8 116.81 69.47 116.42"/>
  <polyline class="cls-2" points="71.8 114.09 72.23 113.39 72.58 112.65 72.86 111.87 73.04 111.06 73.18 110.25 73.21 109.43"/>
  <polyline class="cls-1" points="64.85 120.87 65.73 120.84 66.65 120.73 67.53 120.56 68.38 120.31 69.23 119.99 70.04 119.64 70.81 119.18 71.55 118.68 72.26 118.12 72.93 117.52 73.53 116.85 74.1 116.14 74.59 115.4 75.05 114.62 75.4 113.81 75.72 112.96 75.97 112.12 76.14 111.23 76.25 110.32 76.28 109.43"/>
  <polyline class="cls-2" points="8.77 109.43 8.81 110.25 8.95 111.06 9.13 111.87 9.41 112.65 9.76 113.39 10.15 114.09"/>
  <polyline class="cls-2" points="12.48 116.42 13.19 116.81 13.93 117.17 14.7 117.45 15.51 117.62 16.33 117.77 17.14 117.8"/>
  <polyline class="cls-1" points="5.7 109.43 5.74 110.32 5.84 111.23 6.02 112.12 6.27 112.96 6.59 113.81 6.94 114.62 7.4 115.4 7.89 116.14 8.46 116.85 9.06 117.52 9.73 118.12 10.43 118.68 11.17 119.18 11.95 119.64 12.76 119.99 13.61 120.31 14.46 120.56 15.34 120.73 16.26 120.84 17.14 120.87"/>
  <line class="cls-1" x1="5.67" y1="84.9" x2="5.67" y2="77.38"/>
  <line class="cls-2" x1="8.77" y1="85.07" x2="8.77" y2="77.38"/>
  <line class="cls-1" x1="76.32" y1="77.38" x2="76.32" y2="84.19"/>
  <line class="cls-2" x1="73.25" y1="77.38" x2="73.25" y2="84.19"/>
  <polyline class="cls-2" points="17.14 69.01 16.33 69.04 15.51 69.19 14.7 69.36 13.93 69.64 13.19 70 12.48 70.42"/>
  <polyline class="cls-2" points="10.15 72.75 9.76 73.42 9.41 74.16 9.13 74.94 8.95 75.75 8.81 76.56 8.77 77.38"/>
  <polyline class="cls-1" points="17.14 65.94 16.26 65.97 15.34 66.08 14.46 66.26 13.61 66.5 12.76 66.82 11.95 67.17 11.17 67.63 10.43 68.13 9.73 68.69 9.06 69.29 8.46 69.96 7.89 70.67 7.4 71.41 6.94 72.19 6.59 73 6.27 73.85 6.02 74.69 5.84 75.58 5.74 76.49 5.7 77.38"/>
  <polyline class="cls-2" points="73.21 77.38 73.18 76.56 73.04 75.75 72.86 74.94 72.58 74.16 72.23 73.42 71.8 72.75"/>
  <polyline class="cls-2" points="69.47 70.42 68.8 70 68.06 69.64 67.28 69.36 66.47 69.19 65.66 69.04 64.85 69.01"/>
  <polyline class="cls-1" points="76.28 77.38 76.25 76.49 76.14 75.58 75.97 74.69 75.72 73.85 75.4 73 75.05 72.19 74.59 71.41 74.1 70.67 73.53 69.96 72.93 69.29 72.26 68.69 71.55 68.13 70.81 67.63 70.04 67.17 69.23 66.82 68.38 66.5 67.53 66.26 66.65 66.08 65.73 65.97 64.85 65.94"/>
  <line class="cls-1" x1="64.85" y1="65.94" x2="17.14" y2="65.94"/>
  <line class="cls-2" x1="64.85" y1="69.01" x2="57.79" y2="69.01"/>
  <line class="cls-2" x1="54.44" y1="69.01" x2="47.7" y2="69.01"/>
  <line class="cls-2" x1="44.35" y1="69.01" x2="37.61" y2="69.01"/>
  <line class="cls-2" x1="34.22" y1="69.01" x2="27.51" y2="69.01"/>
  <line class="cls-2" x1="24.16" y1="69.01" x2="17.1" y2="69.01"/>
  <line class="cls-1" x1="30.62" y1="83.94" x2="51.4" y2="83.94"/>
  <line class="cls-1" x1="51.4" y1="83.94" x2="76.32" y2="83.94"/>
  <line class="cls-1" x1="30.62" y1="83.94" x2="5.67" y2="83.94"/>
  <line class="cls-2" x1="8.77" y1="85.07" x2="8.77" y2="93.05"/>
  <line class="cls-2" x1="8.77" y1="96.44" x2="8.77" y2="104.39"/>
  <line class="cls-2" x1="73.25" y1="105.23" x2="73.25" y2="101.49"/>
  <line class="cls-2" x1="73.25" y1="98.1" x2="73.25" y2="91.36"/>
  <polyline class="cls-2" points="73.25 88 73.25 87.97 73.25 84.19"/>
  <line class="cls-2" x1="48.86" y1="120.91" x2="48.86" y2="117.8"/>
  <line class="cls-2" x1="33.16" y1="120.91" x2="33.16" y2="117.8"/>
  <line class="cls-3" x1="44.7" y1="126.2" x2="44.7" y2="112.51"/>
  <line class="cls-3" x1="37.29" y1="126.2" x2="37.29" y2="112.51"/>
  <line class="cls-2" x1="53.31" y1="117.8" x2="53.31" y2="120.91"/>
  <line class="cls-2" x1="57.33" y1="120.91" x2="57.33" y2="117.8"/>
  <line class="cls-3" x1="55.32" y1="112.51" x2="55.32" y2="126.2"/>
  <line class="cls-2" x1="28.18" y1="117.8" x2="28.18" y2="120.91"/>
  <line class="cls-2" x1="20.95" y1="120.91" x2="20.95" y2="117.8"/>
  <line class="cls-3" x1="26.14" y1="112.51" x2="26.14" y2="126.2"/>
  <line class="cls-3" x1="22.96" y1="112.51" x2="22.96" y2="126.2"/>
  <polygon class="cls-1" points="42.05 92.98 42.02 92.7 41.91 92.45 41.73 92.24 41.52 92.06 41.28 91.96 40.99 91.92 40.71 91.96 40.46 92.06 40.25 92.24 40.08 92.45 39.97 92.7 39.93 92.98 39.97 93.26 40.08 93.51 40.25 93.72 40.46 93.9 40.71 94.01 40.99 94.04 41.28 94.01 41.52 93.9 41.73 93.72 41.91 93.51 42.02 93.26 42.05 92.98 42.05 92.98"/>
  <line class="cls-1" x1="55.85" y1="84.83" x2="55.85" y2="84.83"/>
  <line class="cls-1" x1="55.85" y1="83.94" x2="55.85" y2="84.83"/>
  <line class="cls-1" x1="55.32" y1="83.94" x2="55.32" y2="84.83"/>
  <line class="cls-1" x1="53.2" y1="87.47" x2="40.99" y2="87.47"/>
  <line class="cls-1" x1="53.2" y1="86.94" x2="40.99" y2="86.94"/>
  <polyline class="cls-1" points="53.2 87.47 53.63 87.44 54.02 87.33 54.4 87.19 54.76 86.98 55.07 86.7 55.36 86.38 55.57 86.03 55.71 85.64 55.82 85.25 55.85 84.83"/>
  <polyline class="cls-1" points="53.2 86.94 53.52 86.91 53.87 86.84 54.16 86.7 54.44 86.56 54.69 86.31 54.93 86.06 55.07 85.78 55.22 85.5 55.29 85.14 55.32 84.83"/>
  <line class="cls-1" x1="26.14" y1="83.94" x2="26.14" y2="84.83"/>
  <line class="cls-1" x1="26.7" y1="83.94" x2="26.7" y2="84.83"/>
  <line class="cls-1" x1="28.82" y1="87.47" x2="40.99" y2="87.47"/>
  <line class="cls-1" x1="28.82" y1="86.94" x2="40.99" y2="86.94"/>
  <polyline class="cls-1" points="26.17 84.83 26.21 85.25 26.31 85.64 26.45 86.03 26.67 86.38 26.95 86.7 27.27 86.98 27.62 87.19 28.01 87.33 28.4 87.44 28.82 87.47"/>
  <polyline class="cls-1" points="26.7 84.83 26.74 85.14 26.81 85.5 26.95 85.78 27.09 86.06 27.34 86.31 27.58 86.56 27.87 86.7 28.15 86.84 28.5 86.91 28.82 86.94"/>
  <line class="cls-2" x1="5.67" y1="83.94" x2="7.79" y2="83.94"/>
  <line class="cls-2" x1="7.79" y1="79.6" x2="5.67" y2="79.6"/>
  <line class="cls-2" x1="7.79" y1="82.64" x2="7.79" y2="80.94"/>
  <line class="cls-2" x1="7.15" y1="82.64" x2="7.15" y2="80.94"/>
  <line class="cls-2" x1="6.73" y1="80.45" x2="6.73" y2="83.1"/>
  <line class="cls-2" x1="5.67" y1="83.1" x2="5.67" y2="80.45"/>
  <line class="cls-2" x1="74.17" y1="83.94" x2="76.28" y2="83.94"/>
  <line class="cls-2" x1="74.17" y1="79.6" x2="76.28" y2="79.6"/>
  <line class="cls-2" x1="74.17" y1="82.64" x2="74.17" y2="80.94"/>
  <line class="cls-2" x1="74.8" y1="80.94" x2="74.8" y2="82.64"/>
  <line class="cls-2" x1="75.22" y1="80.45" x2="75.22" y2="83.1"/>
  <line class="cls-2" x1="76.32" y1="83.1" x2="76.32" y2="80.45"/>
  <polyline class="cls-2" points="61.85 86.7 62.73 86.66 63.58 86.63 64.43 86.52 65.27 86.38 66.08 86.24 66.86 86.03 67.64 85.78 68.38 85.5 69.05 85.21 69.72 84.86 70.32 84.51 70.85 84.12"/>
  <line class="cls-2" x1="70.88" y1="84.12" x2="74.17" y2="84.12"/>
  <line class="cls-2" x1="74.17" y1="84.12" x2="74.17" y2="85.96"/>
  <polyline class="cls-2" points="73.11 86.38 73.6 86.13 74.17 85.96"/>
  <polyline class="cls-2" points="64.85 88.43 65.77 88.39 66.68 88.36 67.6 88.25 68.48 88.07 69.33 87.9 70.18 87.65 70.99 87.4 71.73 87.09 72.47 86.77 73.11 86.38"/>
  <line class="cls-2" x1="64.85" y1="88.43" x2="57.79" y2="88.43"/>
  <line class="cls-2" x1="54.44" y1="88.43" x2="47.7" y2="88.43"/>
  <line class="cls-2" x1="44.35" y1="88.43" x2="37.61" y2="88.43"/>
  <line class="cls-2" x1="34.22" y1="88.43" x2="27.51" y2="88.43"/>
  <line class="cls-2" x1="24.12" y1="88.43" x2="17.07" y2="88.43"/>
  <polyline class="cls-2" points="8.84 86.38 9.48 86.77 10.22 87.09 10.96 87.4 11.77 87.65 12.62 87.9 13.47 88.07 14.35 88.25 15.27 88.36 16.18 88.39 17.1 88.43"/>
  <polyline class="cls-2" points="7.79 85.96 8.35 86.13 8.81 86.38"/>
  <line class="cls-2" x1="7.79" y1="85.96" x2="7.79" y2="84.12"/>
  <line class="cls-2" x1="7.79" y1="84.12" x2="11.07" y2="84.12"/>
  <polyline class="cls-2" points="11.07 84.12 11.6 84.51 12.2 84.86 12.87 85.21 13.54 85.5 14.28 85.78 15.06 86.03 15.83 86.24 16.64 86.38 17.49 86.52 18.34 86.63 19.18 86.66 20.07 86.7"/>
  <line class="cls-2" x1="20.07" y1="86.7" x2="24.09" y2="86.7"/>
  <line class="cls-2" x1="27.48" y1="86.7" x2="34.22" y2="86.7"/>
  <line class="cls-2" x1="37.57" y1="86.7" x2="44.31" y2="86.7"/>
  <line class="cls-2" x1="47.66" y1="86.7" x2="54.4" y2="86.7"/>
  <line class="cls-2" x1="57.79" y1="86.7" x2="61.85" y2="86.7"/>
  <line class="cls-2" x1="5.67" y1="80.45" x2="6.73" y2="80.45"/>
  <line class="cls-2" x1="5.67" y1="83.1" x2="6.73" y2="83.1"/>
  <line class="cls-2" x1="7.79" y1="82.64" x2="6.73" y2="82.64"/>
  <line class="cls-2" x1="7.79" y1="80.94" x2="6.73" y2="80.94"/>
  <line class="cls-2" x1="7.79" y1="79.6" x2="7.79" y2="83.94"/>
  <line class="cls-2" x1="5.67" y1="79.6" x2="5.67" y2="83.94"/>
  <line class="cls-2" x1="76.32" y1="80.45" x2="75.22" y2="80.45"/>
  <line class="cls-2" x1="74.17" y1="80.94" x2="75.22" y2="80.94"/>
  <line class="cls-2" x1="74.17" y1="82.64" x2="75.22" y2="82.64"/>
  <line class="cls-2" x1="75.22" y1="83.1" x2="76.32" y2="83.1"/>
  <line class="cls-2" x1="76.28" y1="79.6" x2="76.32" y2="83.94"/>
  <line class="cls-2" x1="74.17" y1="79.6" x2="74.17" y2="83.94"/>
  <line class="cls-3" x1="13.08" y1="81.79" x2=".38" y2="81.79"/>
  <line class="cls-3" x1="68.87" y1="81.79" x2="81.61" y2="81.79"/>
  <line class="cls-2" x1="61.85" y1="78.79" x2="57.79" y2="78.79"/>
  <line class="cls-2" x1="54.4" y1="78.79" x2="47.66" y2="78.79"/>
  <line class="cls-2" x1="44.31" y1="78.79" x2="37.57" y2="78.79"/>
  <line class="cls-2" x1="34.22" y1="78.79" x2="27.48" y2="78.79"/>
  <line class="cls-2" x1="24.09" y1="78.79" x2="20.03" y2="78.79"/>
  <line class="cls-2" x1="20.07" y1="78.79" x2="24.09" y2="78.79"/>
  <line class="cls-2" x1="27.48" y1="78.79" x2="34.22" y2="78.79"/>
  <line class="cls-2" x1="37.57" y1="78.79" x2="44.31" y2="78.79"/>
  <line class="cls-2" x1="47.66" y1="78.79" x2="54.4" y2="78.79"/>
  <line class="cls-2" x1="57.79" y1="78.79" x2="61.85" y2="78.79"/>
  <polyline class="cls-2" points="70.95 83.94 70.39 83.2 69.79 82.46 69.08 81.75 68.31 81.08 67.43 80.45 66.51 79.92 65.48 79.46 64.39 79.11"/>
  <polyline class="cls-2" points="64.81 79.28 64.07 79.07 63.33 78.93 62.59 78.86 61.85 78.82"/>
  <polyline class="cls-2" points="70.14 82.88 69.05 81.68 67.74 80.66 67.07 80.2 66.33 79.85 65.63 79.49 64.85 79.25"/>
  <polyline class="cls-2" points="20.07 78.79 18.8 78.86 17.56 79.11"/>
  <polyline class="cls-2" points="17.56 79.11 16.47 79.46 15.44 79.92 14.49 80.45 13.64 81.08 12.83 81.75 12.16 82.46 11.56 83.2 11 83.94"/>
  <line class="cls-2" x1="11" y1="83.94" x2="11.07" y2="84.12"/>
  <line class="cls-2" x1="70.95" y1="83.94" x2="70.88" y2="84.12"/>
  <line class="cls-2" x1="30.41" y1="69.43" x2="34.25" y2="69.43"/>
  <line class="cls-2" x1="37.64" y1="69.43" x2="44.35" y2="69.43"/>
  <line class="cls-2" x1="47.73" y1="69.43" x2="51.62" y2="69.43"/>
  <line class="cls-2" x1="30.62" y1="69.57" x2="34.25" y2="69.57"/>
  <line class="cls-2" x1="37.64" y1="69.57" x2="44.35" y2="69.57"/>
  <line class="cls-2" x1="47.73" y1="69.57" x2="51.4" y2="69.57"/>
  <line class="cls-2" x1="51.4" y1="70.39" x2="47.73" y2="70.39"/>
  <line class="cls-2" x1="44.35" y1="70.39" x2="37.64" y2="70.39"/>
  <line class="cls-2" x1="34.25" y1="70.39" x2="30.58" y2="70.39"/>
  <line class="cls-2" x1="30.41" y1="70.56" x2="34.25" y2="70.56"/>
  <line class="cls-2" x1="37.64" y1="70.56" x2="44.35" y2="70.56"/>
  <line class="cls-2" x1="47.73" y1="70.56" x2="51.62" y2="70.56"/>
  <line class="cls-2" x1="30.41" y1="83.98" x2="34.25" y2="83.98"/>
  <line class="cls-2" x1="37.64" y1="83.98" x2="44.35" y2="83.98"/>
  <line class="cls-2" x1="47.73" y1="83.98" x2="51.62" y2="83.98"/>
  <line class="cls-2" x1="30.83" y1="84.37" x2="34.25" y2="84.37"/>
  <line class="cls-2" x1="37.64" y1="84.37" x2="44.35" y2="84.37"/>
  <line class="cls-2" x1="47.73" y1="84.37" x2="51.19" y2="84.37"/>
  <line class="cls-2" x1="30.83" y1="84.68" x2="34.25" y2="84.68"/>
  <line class="cls-2" x1="37.64" y1="84.68" x2="44.35" y2="84.68"/>
  <line class="cls-2" x1="47.73" y1="84.68" x2="51.19" y2="84.68"/>
  <line class="cls-2" x1="51.4" y1="83.73" x2="47.73" y2="83.73"/>
  <line class="cls-2" x1="44.35" y1="83.73" x2="37.64" y2="83.73"/>
  <line class="cls-2" x1="34.25" y1="83.73" x2="30.58" y2="83.73"/>
  <line class="cls-2" x1="30.62" y1="84.26" x2="34.25" y2="84.26"/>
  <line class="cls-2" x1="37.64" y1="84.26" x2="44.35" y2="84.26"/>
  <line class="cls-2" x1="47.73" y1="84.26" x2="51.4" y2="84.26"/>
  <line class="cls-2" x1="30.41" y1="83.94" x2="34.25" y2="83.94"/>
  <line class="cls-2" x1="37.64" y1="83.94" x2="44.35" y2="83.94"/>
  <line class="cls-2" x1="47.73" y1="83.94" x2="51.62" y2="83.94"/>
  <line class="cls-2" x1="51.4" y1="86.7" x2="47.73" y2="86.7"/>
  <line class="cls-2" x1="44.35" y1="86.7" x2="37.64" y2="86.7"/>
  <line class="cls-2" x1="34.25" y1="86.7" x2="30.58" y2="86.7"/>
  <line class="cls-2" x1="30.62" y1="86.84" x2="34.25" y2="86.84"/>
  <line class="cls-2" x1="37.64" y1="86.84" x2="44.35" y2="86.84"/>
  <line class="cls-2" x1="47.73" y1="86.84" x2="51.4" y2="86.84"/>
  <line class="cls-2" x1="30.62" y1="89.03" x2="34.25" y2="89.03"/>
  <line class="cls-2" x1="37.64" y1="89.03" x2="44.35" y2="89.03"/>
  <line class="cls-2" x1="47.73" y1="89.03" x2="51.4" y2="89.03"/>
  <line class="cls-2" x1="30.62" y1="79.11" x2="34.25" y2="79.11"/>
  <line class="cls-2" x1="37.64" y1="79.11" x2="44.35" y2="79.11"/>
  <line class="cls-2" x1="47.73" y1="79.11" x2="51.4" y2="79.11"/>
  <line class="cls-2" x1="30.41" y1="89.7" x2="34.25" y2="89.7"/>
  <line class="cls-2" x1="37.64" y1="89.7" x2="44.35" y2="89.7"/>
  <line class="cls-2" x1="47.73" y1="89.7" x2="51.62" y2="89.7"/>
  <line class="cls-2" x1="51.62" y1="83.98" x2="47.73" y2="83.98"/>
  <line class="cls-2" x1="44.35" y1="83.98" x2="37.64" y2="83.98"/>
  <line class="cls-2" x1="34.25" y1="83.98" x2="30.41" y2="83.98"/>
  <line class="cls-2" x1="30.41" y1="78.33" x2="34.25" y2="78.33"/>
  <line class="cls-2" x1="37.64" y1="78.33" x2="44.35" y2="78.33"/>
  <line class="cls-2" x1="47.73" y1="78.33" x2="51.62" y2="78.33"/>
  <line class="cls-2" x1="30.62" y1="79.11" x2="34.25" y2="79.11"/>
  <line class="cls-2" x1="37.64" y1="79.11" x2="44.35" y2="79.11"/>
  <line class="cls-2" x1="47.73" y1="79.11" x2="51.4" y2="79.11"/>
</svg>