<?xml version="1.0" encoding="UTF-8"?>
<svg id="_0" data-name="0" xmlns="http://www.w3.org/2000/svg" viewBox="0 0 617.86 789.75">
  <defs>
    <style>
      .cls-1 {
        fill: #c9ccd4;
      }

      .cls-1, .cls-2, .cls-3 {
        stroke-width: 0px;
      }

      .cls-4 {
        fill: none;
        stroke: #fff;
        stroke-miterlimit: 10;
        stroke-width: 2px;
      }

      .cls-2 {
        fill: #fff;
      }

      .cls-3 {
        fill: #5f6775;
      }
    </style>
  </defs>
  <g>
    <path class="cls-2" d="m613.54,1.8c.17.11.21.33.11.49l-202.46,311.8c-.04.05-.09.1-.15.12l-.15-.31-.31.15c-.06-.1-.06-.24.01-.35L612.74,2.38h.01l.6-.28h-.42l.12-.19c.11-.17.33-.21.49-.11Z"/>
    <path class="cls-3" d="m411.04,314.21l202.31,433.87-86.15,40.17c-.06-.13-.18-.21-.32-.21h-.17l-202.14-433.51c.05-.02.1-.06.14-.12l.3-.47,85.57-39.89c.02.06.06.11.12.14.06.04.12.06.19.06.05,0,.1-.01.15-.04Z"/>
    <polygon class="cls-2" points="613.35 2.1 612.75 2.38 612.93 2.1 613.35 2.1"/>
    <path class="cls-3" d="m612.93,2.1l-.18.28h-.01l-85.55,39.89c-.03-.06-.07-.11-.12-.14-.16-.11-.38-.06-.49.1l-.12.19h-200.43c0-.05-.01-.11-.04-.15L412.15,2.1h200.78Z"/>
    <path class="cls-3" d="m612.74,2.38l-202.15,311.32c-.07.11-.07.25-.01.35l-85.57,39.89L527.17,42.62c.07-.11.08-.25.02-.35L612.74,2.38Z"/>
    <path class="cls-2" d="m527.19,42.27c.06.1.05.24-.02.35l-202.16,311.32-.59.28.15.31s-.1.04-.15.04c-.07,0-.14-.02-.2-.05-.16-.11-.21-.33-.1-.49L526.46,42.42h.42l.31-.15Z"/>
    <path class="cls-2" d="m527.2,788.25s.03.1.03.15c0,.19-.16.35-.35.35h-186.19s.1-.01.15-.03c.17-.08.25-.29.17-.47l-.1-.21h185.8l.17.36.32-.15Z"/>
    <path class="cls-2" d="m527.2,788.25l-.32.15-.17-.36h.17c.14,0,.26.08.32.21Z"/>
    <path class="cls-2" d="m527.19,42.27l-.31.15h-.42l.12-.19c.11-.16.33-.21.49-.1.05.03.09.08.12.14Z"/>
    <path class="cls-1" d="m324.57,354.53l202.14,433.51h-185.8l-84.01-180.16-21.63-46.38s0-.01,0-.02-.01-.01-.01-.02l-18.89-40.5c-.03-.06-.07-.11-.13-.15s-.12-.05-.19-.05c-.04,0-.08.01-.11.02-.08.02-.14.07-.19.14l-45.92,70.72h-.01s-.02.04-.02.04c-.02.02-.03.04-.03.06-.02.04-.03.09-.03.13v196.17H1.7V42.42l168.08.15c.06.13.18.21.32.21v238.59l-.3.46c-.11.16-.06.38.1.49.06.03.13.05.2.05.11,0,.23-.05.29-.16L325.97,42.62c.04-.06.06-.13.06-.2h200.43l-202.34,311.61c-.11.16-.06.38.1.49.06.03.13.05.2.05.05,0,.1-.01.15-.04Z"/>
    <path class="cls-2" d="m410.89,313.9l.15.31c-.05.03-.1.04-.15.04-.07,0-.13-.02-.19-.06-.06-.03-.1-.08-.12-.14l.31-.15Z"/>
    <path class="cls-2" d="m341.01,788.25c.08.18,0,.39-.17.47-.05.02-.1.03-.15.03s-.1-.01-.14-.03c-.04,0-.07-.03-.1-.06-.01-.01-.02-.01-.03-.02-.05-.06-.09-.15-.09-.24,0-.2.16-.36.36-.36h.22l.1.21Z"/>
    <path class="cls-2" d="m256.9,607.88l84.01,180.16h-.22c-.2,0-.36.16-.36.36,0,.09.04.18.09.24l-.06-.09-83.44-178.95v-1.59s-.01-.09-.03-.13h.01Z"/>
    <path class="cls-2" d="m325.68,42.42h.35c0,.07-.02.14-.06.2l-155.58,239.59c-.06.11-.18.16-.29.16-.07,0-.14-.02-.2-.05-.16-.11-.21-.33-.1-.49l.3-.46v.65l86.47-133.17v-.65l68.81-105.97c.1-.16.33-.21.49-.1.05.03.09.08.12.14l-.31.15Z"/>
    <path class="cls-2" d="m326.03,42.42h-.35l.31-.15s.04.1.04.15Z"/>
    <path class="cls-2" d="m325.01,353.94l-.3.47c-.04.06-.09.1-.14.12l-.15-.31.59-.28Z"/>
    <path class="cls-2" d="m256.92,609.6v138.48s-.01-.1-.03-.15c-.08-.18-.29-.26-.47-.18l-.2.09v-139.74l.7,1.5Z"/>
    <path class="cls-2" d="m256.92,608.01v1.59l-.7-1.5v-.09c0-.19.15-.35.35-.35.15,0,.27.09.32.22.02.04.03.08.03.13Z"/>
    <path class="cls-2" d="m256.89,1.95c.08.18.01.39-.17.47l-.15.07v-.39h-.84l.69-.32c.18-.08.39,0,.47.17Z"/>
    <path class="cls-2" d="m256.89,747.93s.03.1.03.15-.01.09-.03.13c-.01.04-.03.08-.06.11-.04.03-.08.06-.12.08s-.09.03-.14.03c-.2,0-.35-.16-.35-.35v-.24l.2-.09c.18-.08.39,0,.47.18Z"/>
    <path class="cls-2" d="m235.27,561.5l21.63,46.38h-.01c-.05-.13-.17-.22-.32-.22-.2,0-.35.16-.35.35v.09l-21.44-45.99.31-.15c.17-.09.25-.29.18-.46Z"/>
    <path class="cls-2" d="m256.71,748.4l-86.46,40.32c.12-.07.2-.18.2-.32v-.55l85.77-40.01v.24c0,.19.15.35.35.35.05,0,.1-.01.14-.03Z"/>
    <polygon class="cls-2" points="256.57 148.2 256.57 148.85 170.1 282.02 170.1 281.37 256.57 148.2"/>
    <path class="cls-3" d="m256.57,2.49v145.71l-86.47,133.17V42.78c.05,0,.1,0,.15-.03L256.57,2.49Z"/>
    <path class="cls-2" d="m256.57,2.1v.39l-86.32,40.26c-.05.02-.1.03-.15.03v-.36L256.57,2.1Z"/>
    <path class="cls-2" d="m256.57,2.1l-86.47,40.32h-.36c0-.13.08-.26.21-.32L255.73,2.1h.84Z"/>
    <polygon class="cls-3" points="256.22 608.1 256.22 747.84 170.45 787.85 170.45 592.1 234.78 562.11 256.22 608.1"/>
    <path class="cls-3" d="m255.73,2.1l-85.78,40c-.13.06-.21.19-.21.32H1.7c0-.05-.01-.1-.04-.15L87.82,2.1h167.91Z"/>
    <path class="cls-2" d="m235.27,561.5c.07.17-.01.37-.18.46l-.31.15-.31-.65.32-.15c.17-.08.37-.01.47.15,0,0,.01,0,.01.02s.01.01,0,.02Z"/>
    <path class="cls-2" d="m216.37,520.96l18.89,40.5c-.1-.16-.3-.23-.47-.15l-.32.15-18.47-39.63.34-.53c.07-.1.08-.23.03-.34Z"/>
    <polygon class="cls-2" points="234.47 561.46 234.78 562.11 170.45 592.1 170.45 591.98 171.07 591.03 234.47 561.46"/>
    <polygon class="cls-3" points="216 521.83 234.47 561.46 171.07 591.03 216 521.83"/>
    <path class="cls-2" d="m216.37,520.96c.05.11.04.24-.03.34l-.34.53-.27-.57c-.06-.12-.05-.24.02-.34.05-.07.11-.12.19-.14.03-.01.07-.02.11-.02.07,0,.13.01.19.05s.1.09.13.15Z"/>
    <path class="cls-2" d="m215.73,521.26l.27.57-44.93,69.2-1.1.52h-.02s-.08.04-.1.08c-.01,0-.02,0-.02,0l45.92-70.72c-.07.1-.08.22-.02.34Z"/>
    <path class="cls-2" d="m171.07,591.03l-.62.95v-.11c0-.19-.16-.35-.35-.35-.05,0-.09.01-.13.03l1.1-.52Z"/>
    <path class="cls-2" d="m170.45,787.85v.55c0-.2-.16-.36-.35-.36h-.06l.41-.19Z"/>
    <path class="cls-2" d="m170.45,592.1v195.75l-.41.19h-.3v-196.17s.01.06.01.09l.03.06s.03.06.06.09c.02.03.06.06.1.07.05.04.1.05.16.05.05,0,.1-.01.15-.04h.03s.17-.09.17-.09Z"/>
    <path class="cls-2" d="m170.45,591.98v.12l-.17.08s.08-.07.11-.11l.06-.09Z"/>
    <path class="cls-2" d="m170.45,591.87v.11l-.06.09s-.07.08-.11.11h-.03c-.05.04-.1.05-.15.05-.06,0-.11-.01-.16-.05-.04-.01-.08-.04-.1-.07-.03-.03-.05-.06-.06-.09l-.03-.06s-.01-.06-.01-.09c0-.04.01-.09.03-.13,0-.02.01-.04.03-.06.01-.02.03-.03.05-.05.02-.04.06-.06.1-.08h.02s.08-.03.13-.03c.19,0,.35.16.35.35Z"/>
    <path class="cls-2" d="m170.45,788.4c0,.14-.08.25-.2.32h-.02s-.09.03-.13.03c-.05,0-.1-.01-.14-.03-.03,0-.05-.02-.07-.04-.05-.03-.08-.07-.11-.13-.03-.05-.04-.1-.04-.16,0-.13.08-.25.21-.31l.09-.04h.06c.19,0,.35.16.35.36Z"/>
    <path class="cls-2" d="m170.1,42.42v.36c-.14,0-.26-.08-.32-.21-.03-.05-.04-.1-.04-.15h.36Z"/>
    <path class="cls-2" d="m170.1,788.75h-84.38c-.19,0-.35-.16-.35-.35,0-.2.16-.36.35-.36h84.02v.35c0,.06.01.11.04.16.03.06.06.1.11.13.02.02.04.03.07.04.04.02.09.03.14.03Z"/>
    <path class="cls-2" d="m170.04,788.04l-.09.04c-.13.06-.21.18-.21.31v-.35h.3Z"/>
    <path class="cls-2" d="m169.85,591.63s-.04.03-.05.05l.02-.03h.01s0-.02.02-.02Z"/>
    <path class="cls-1" d="m169.78,42.57l-168.08-.15h168.04c0,.05.01.1.04.15Z"/>
    <path class="cls-2" d="m1.7,788.04h84.02c-.19,0-.35.16-.35.36s.16.35.35.35H1.35c.2,0,.35-.16.35-.35v-.36Z"/>
    <path class="cls-2" d="m1.7,788.04v.36c0,.19-.15.35-.35.35s-.35-.16-.35-.35c0-.2.15-.36.35-.36h.35Z"/>
    <path class="cls-2" d="m1.7,42.42v745.62h-.35c-.2,0-.35.16-.35.36V42.42c0-.19.15-.35.35-.35.14,0,.26.08.31.2l-.31.15h.35Z"/>
    <path class="cls-2" d="m1.7,42.42h-.35l.31-.15s.04.1.04.15Z"/>
  </g>
  <g>
    <polyline class="cls-4" points="325.99 42.27 412.15 2.1 612.93 2.1 612.75 2.38"/>
    <path class="cls-4" d="m526.46,42.42l.12-.19c.11-.16.33-.21.49-.1.05.03.09.08.12.14"/>
    <path class="cls-4" d="m411.04,314.21l202.31,433.87-86.15,40.17c-.06-.13-.18-.21-.32-.21h-.17"/>
    <path class="cls-4" d="m612.74,2.38h.01l.6-.28h-.42l.12-.19c.11-.17.33-.21.49-.11.17.11.21.33.11.49l-202.46,311.8c-.04.05-.09.1-.15.12"/>
    <path class="cls-4" d="m410.58,314.05l.31-.15.15.31c-.05.03-.1.04-.15.04-.07,0-.13-.02-.19-.06-.06-.03-.1-.08-.12-.14Z"/>
    <path class="cls-4" d="m527.19,42.27L612.74,2.38l-202.15,311.32c-.07.11-.07.25-.01.35l-85.57,39.89"/>
    <path class="cls-4" d="m526.71,788.04l.17.36.32-.15s.03.1.03.15c0,.19-.16.35-.35.35h-186.19"/>
    <path class="cls-4" d="m340.91,788.04l.1.21c.08.18,0,.39-.17.47-.05.02-.1.03-.15.03s-.1-.01-.14-.03c-.04,0-.07-.03-.1-.06-.01-.01-.02-.01-.03-.02"/>
    <path class="cls-4" d="m325.99,42.27s.04.1.04.15"/>
    <path class="cls-4" d="m526.46,42.42h.42l.31-.15c.06.1.05.24-.02.35l-202.16,311.32"/>
    <path class="cls-4" d="m325.01,353.94l-.3.47c-.04.06-.09.1-.14.12l-.15-.31.59-.28Z"/>
    <path class="cls-4" d="m326.03,42.42h200.43l-202.34,311.61c-.11.16-.06.38.1.49.06.03.13.05.2.05.05,0,.1-.01.15-.04l202.14,433.51h-185.8"/>
    <path class="cls-4" d="m256.9,607.88l84.01,180.16h-.22c-.2,0-.36.16-.36.36,0,.09.04.18.09.24l-.06-.09-83.44-178.95"/>
    <line class="cls-4" x1="170.1" y1="281.37" x2="170.1" y2="42.78"/>
    <line class="cls-4" x1="256.57" y1="2.49" x2="256.57" y2="148.2"/>
    <path class="cls-4" d="m256.89,607.88s.03.08.03.13v1.59"/>
    <path class="cls-4" d="m255.73,2.1l.69-.32c.18-.08.39,0,.47.17s.01.39-.17.47l-.15.07"/>
    <path class="cls-4" d="m256.92,748.08c0,.05-.01.09-.03.13-.01.04-.03.08-.06.11-.04.03-.08.06-.12.08"/>
    <path class="cls-4" d="m256.22,608.1l.7,1.5v138.48s-.01-.1-.03-.15c-.08-.18-.29-.26-.47-.18l-.2.09"/>
    <line class="cls-4" x1="256.22" y1="608.1" x2="256.22" y2="747.84"/>
    <line class="cls-4" x1="87.82" y1="2.1" x2="255.73" y2="2.1"/>
    <path class="cls-4" d="m235.27,561.5l21.63,46.38h-.01c-.05-.13-.17-.22-.32-.22-.2,0-.35.16-.35.35v.09l-21.44-45.99"/>
    <path class="cls-4" d="m235.26,561.46s.01,0,.01.02.01.01,0,.02c.07.17-.01.37-.18.46l-.31.15"/>
    <polyline class="cls-4" points="234.47 561.46 234.78 562.11 170.45 592.1"/>
    <line class="cls-4" x1="234.47" y1="561.46" x2="171.07" y2="591.03"/>
    <path class="cls-4" d="m216.37,520.96l18.89,40.5c-.1-.16-.3-.23-.47-.15l-.32.15-18.47-39.63"/>
    <path class="cls-4" d="m215.75,520.92c.05-.07.11-.12.19-.14.03-.01.07-.02.11-.02.07,0,.13.01.19.05s.1.09.13.15c.05.11.04.24-.03.34l-.34.53"/>
    <path class="cls-4" d="m170.45,787.85l85.77-40.01v.24c0,.19.15.35.35.35.05,0,.1-.01.14-.03l-86.46,40.32"/>
    <line class="cls-4" x1="170.45" y1="787.85" x2="170.45" y2="788.4"/>
    <line class="cls-4" x1="170.45" y1="591.98" x2="170.45" y2="592.1"/>
    <line class="cls-4" x1="170.1" y1="281.37" x2="256.57" y2="148.2"/>
    <path class="cls-4" d="m256.57,2.1v.39l-86.32,40.26c-.05.02-.1.03-.15.03"/>
    <path class="cls-4" d="m170.04,788.04h.06c.19,0,.35.16.35.36,0,.14-.08.25-.2.32h-.02s-.09.03-.13.03"/>
    <line class="cls-4" x1="171.07" y1="591.03" x2="170.45" y2="591.98"/>
    <path class="cls-4" d="m170.1,42.42v.36c-.14,0-.26-.08-.32-.21-.03-.05-.04-.1-.04-.15"/>
    <path class="cls-4" d="m326.03,42.42c0,.07-.02.14-.06.2l-155.58,239.59c-.06.11-.18.16-.29.16-.07,0-.14-.02-.2-.05-.16-.11-.21-.33-.1-.49l.3-.46v.65l86.47-133.17v-.65l68.81-105.97c.1-.16.33-.21.49-.1.05.03.09.08.12.14l-.31.15h.35Z"/>
    <path class="cls-4" d="m169.97,591.55s.08-.03.13-.03c.19,0,.35.16.35.35v.11l-.06.09s-.07.08-.11.11"/>
    <path class="cls-4" d="m169.74,591.87s.01-.09.03-.13c0-.02.01-.04.03-.06"/>
    <path class="cls-4" d="m170.1,42.42h-.36c0-.13.08-.26.21-.32L255.73,2.1h.84l-86.47,40.32Z"/>
    <path class="cls-4" d="m170.04,788.04l-.09.04c-.13.06-.21.18-.21.31"/>
    <path class="cls-4" d="m169.83,591.64l45.92-70.72c-.07.1-.08.22-.02.34l.27.57-44.93,69.2-1.1.52h-.02s-.08.04-.1.08"/>
    <path class="cls-4" d="m169.83,591.64s0,0,.02,0c-.02.02-.04.03-.05.05l.02-.03h.01Z"/>
    <path class="cls-4" d="m169.74,591.87s.01.06.01.09l.03.06s.03.06.06.09c.02.03.06.06.1.07.05.04.1.05.16.05.05,0,.1-.01.15-.04h.03s.17-.09.17-.09v195.75l-.41.19h-.3v-196.17Z"/>
    <path class="cls-4" d="m85.72,788.04h84.02v.35c0,.06.01.11.04.16.03.06.06.1.11.13.02.02.04.03.07.04.04.02.09.03.14.03h-84.38"/>
    <path class="cls-4" d="m1.7,788.04h84.02c-.19,0-.35.16-.35.36s.16.35.35.35H1.35"/>
    <path class="cls-4" d="m1,788.4V42.42c0-.19.15-.35.35-.35.14,0,.26.08.31.2"/>
    <line class="cls-4" x1="1.7" y1="42.42" x2="1.7" y2="788.04"/>
    <path class="cls-4" d="m1.7,788.04v.36c0,.19-.15.35-.35.35s-.35-.16-.35-.35c0-.2.15-.36.35-.36h.35Z"/>
    <path class="cls-4" d="m1.66,42.27s.04.1.04.15"/>
    <line class="cls-4" x1="169.74" y1="42.42" x2="1.7" y2="42.42"/>
    <line class="cls-4" x1="1.7" y1="42.42" x2="1.35" y2="42.42"/>
    <polyline class="cls-4" points="87.82 2.1 1.66 42.27 1.35 42.42"/>
  </g>
</svg>