<svg xmlns="http://www.w3.org/2000/svg" width="1600" height="420" viewBox="0 0 1600 420">
  <defs>
    <linearGradient id="bg" x1="0" y1="0" x2="1" y2="0">
      <stop offset="0%" stop-color="#0a1627"/>
      <stop offset="45%" stop-color="#10233d"/>
      <stop offset="100%" stop-color="#0d1d34"/>
    </linearGradient>
    <linearGradient id="printBed" x1="0" y1="0" x2="0" y2="1">
      <stop offset="0%" stop-color="#1a2f4e"/>
      <stop offset="100%" stop-color="#132843"/>
    </linearGradient>
    <linearGradient id="line" x1="0" y1="0" x2="1" y2="0">
      <stop offset="0%" stop-color="#61f2c2"/>
      <stop offset="100%" stop-color="#73b6ff"/>
    </linearGradient>
  </defs>

  <rect width="1600" height="420" fill="url(#bg)"/>
  <rect x="0" y="0" width="1600" height="420" fill="none" stroke="#27466f" stroke-width="2"/>

  <g opacity=".9">
    <rect x="40" y="28" width="1140" height="364" rx="20" fill="url(#printBed)" stroke="#3a5e8f" stroke-width="2"/>

    <g opacity=".7">
      <rect x="56" y="284" width="870" height="8" rx="4" fill="url(#line)"/>
      <rect x="56" y="266" width="830" height="7" rx="4" fill="url(#line)"/>
      <rect x="56" y="250" width="775" height="6" rx="3" fill="url(#line)" opacity=".75"/>
      <rect x="56" y="236" width="720" height="5" rx="3" fill="url(#line)" opacity=".56"/>
      <rect x="56" y="224" width="666" height="5" rx="3" fill="url(#line)" opacity=".4"/>
    </g>

    <g transform="translate(782 206)">
      <rect x="-36" y="-25" width="72" height="30" rx="8" fill="#d9ecff" stroke="#223b5c" stroke-width="2"/>
      <rect x="-12" y="4" width="24" height="26" rx="4" fill="#253f62"/>
      <rect x="-9" y="26" width="18" height="8" rx="3" fill="#86d7ff"/>
      <ellipse cx="-24" cy="-10" rx="10" ry="5" fill="#70ffd2" opacity=".72"/>
    </g>
  </g>

  <g opacity=".9">
    <rect x="1214" y="52" width="340" height="314" rx="16" fill="#102038" stroke="#3a5e8f" stroke-width="2"/>
    <rect x="1264" y="104" width="240" height="20" rx="10" fill="#223b60"/>
    <circle cx="1394" cy="114" r="11" fill="#62f0ba"/>
    <rect x="1264" y="162" width="240" height="20" rx="10" fill="#223b60"/>
    <circle cx="1470" cy="172" r="11" fill="#72b8ff"/>
    <rect x="1264" y="220" width="240" height="20" rx="10" fill="#223b60"/>
    <circle cx="1334" cy="230" r="11" fill="#62f0ba"/>
    <rect x="1264" y="284" width="108" height="40" rx="12" fill="#1f3658" stroke="#4a74ad"/>
    <rect x="1396" y="284" width="108" height="40" rx="12" fill="#1f3658" stroke="#4a74ad"/>
  </g>

  <text x="58" y="86" fill="#ecf4ff" font-family="Inter, Arial, sans-serif" font-size="52" font-weight="800">3D Printed GIF Toy</text>
  <text x="58" y="346" fill="#a8caef" font-family="Inter, Arial, sans-serif" font-size="26" font-weight="600">Upload image • Tune sliders • Export GIF / MP4</text>
</svg>
